<?xml version="1.0" standalone="no"?>
<!DOCTYPE svg PUBLIC "-//W3C//DTD SVG 20010904//EN"
 "http://www.w3.org/TR/2001/REC-SVG-20010904/DTD/svg10.dtd">
<svg version="1.0" xmlns="http://www.w3.org/2000/svg"
 width="246.000000pt" height="119.000000pt" viewBox="0 0 246.000000 119.000000"
 preserveAspectRatio="xMidYMid meet">

<g transform="translate(0.000000,119.000000) scale(0.100000,-0.100000)"
fill="#000000" stroke="none">
<path d="M377 1163 c-4 -3 -7 -55 -7 -115 l0 -108 -79 0 c-89 0 -104 -9 -101
-62 3 -58 5 -57 -82 -60 l-83 -3 -3 -69 c-2 -49 1 -72 10 -77 22 -15 294 -11
306 4 6 7 12 33 14 57 l3 45 75 3 c41 2 80 8 87 14 10 8 13 53 13 178 0 93 -3
175 -6 184 -5 12 -21 16 -73 16 -37 0 -71 -3 -74 -7z m131 -180 l-3 -178 -87
-3 -87 -3 -3 -57 -3 -57 -145 0 -145 0 -3 58 -3 57 91 0 90 0 0 60 0 60 85 0
85 0 0 120 0 120 65 0 65 0 -2 -177z"/>
<path d="M958 1160 c-1 -5 -1 -63 2 -127 l5 -118 65 0 c61 0 66 2 78 28 29 59
56 22 50 -69 l-3 -49 -89 -3 c-50 -2 -96 -8 -103 -14 -9 -7 -12 -29 -8 -77 7
-90 6 -427 -1 -446 -4 -8 -3 -26 0 -40 6 -24 7 -24 149 -27 l142 -3 1 -81 c1
-115 0 -114 83 -114 54 0 70 4 75 16 3 9 6 68 6 131 0 93 2 113 13 105 7 -6
46 -12 87 -14 l75 -3 0 -105 c1 -58 4 -111 8 -117 13 -20 143 -17 151 3 3 9 6
87 6 175 l0 159 75 0 c60 0 76 3 84 17 9 17 10 17 28 1 16 -15 45 -18 178 -20
l160 -3 5 -170 5 -170 75 0 75 0 0 455 0 455 -75 0 -75 0 -5 -55 -5 -55 -92
-3 -93 -3 0 160 c0 88 -3 166 -6 175 -5 12 -21 16 -74 16 -38 0 -72 -5 -75
-10 -3 -6 -6 -120 -5 -254 l1 -245 -38 -3 -38 -3 -3 -62 c-3 -59 -5 -63 -26
-63 -20 0 -25 7 -31 38 -3 20 -6 60 -5 88 1 58 -23 100 -52 89 -17 -7 -34 -42
-29 -60 1 -5 0 -43 -4 -82 -6 -68 -8 -73 -30 -73 -22 0 -24 4 -27 63 l-3 62
-94 3 c-52 1 -102 0 -110 -4 -9 -4 -20 -6 -26 -4 -5 2 -30 4 -55 4 l-45 1 2
80 c1 44 2 83 2 88 1 4 30 7 66 7 51 0 66 4 74 18 5 10 9 67 9 127 0 60 -4
117 -9 127 -9 16 -27 18 -175 18 l-164 0 -10 25 c-9 23 -14 25 -79 25 -38 0
-71 -4 -73 -10z m132 -25 l0 -25 178 -2 177 -3 3 -57 3 -58 -76 0 -75 0 0
-150 0 -150 -165 0 -165 0 0 55 0 54 103 3 102 3 0 90 0 90 -42 3 c-42 3 -43
2 -43 -27 l0 -31 -60 0 -60 0 0 115 0 115 60 0 c57 0 60 -1 60 -25z m980 -155
l0 -180 115 0 114 0 3 63 3 62 58 3 57 3 0 -126 0 -125 -235 0 -235 0 0 240 0
240 60 0 60 0 0 -180z m-702 -67 l3 -63 -31 0 -30 0 0 66 0 65 28 -3 c26 -3
27 -6 30 -65z m76 50 c-1 -7 -2 -36 -2 -64 -2 -49 -3 -50 -29 -47 -26 3 -28 7
-31 52 -2 27 -1 55 2 63 7 18 61 14 60 -4z m316 -247 c0 -8 6 -16 13 -19 9 -3
9 -8 1 -18 -10 -14 -10 -38 2 -96 6 -31 5 -33 -24 -33 -39 0 -45 10 -28 51 9
22 11 42 5 63 -6 20 -5 32 1 34 5 2 10 10 10 18 0 8 5 14 10 14 6 0 10 -6 10
-14z m-531 -77 c-11 -21 -9 -58 6 -91 6 -15 2 -18 -30 -18 -32 0 -36 3 -29 18
4 9 8 31 8 47 0 17 -4 38 -8 48 -7 14 -3 17 28 17 34 0 36 -1 25 -21z m881
-44 c0 -63 -1 -65 -26 -65 -21 0 -25 3 -19 18 14 32 17 70 6 76 -21 13 -12 36
14 36 24 0 25 -2 25 -65z m90 41 c0 -14 -4 -28 -10 -31 -5 -3 -10 0 -10 9 0 8
-3 21 -6 30 -4 11 -1 16 10 16 10 0 16 -9 16 -24z m-1185 -3 c6 -17 7 -17 16
0 18 31 29 18 29 -33 0 -53 -18 -68 -39 -32 -10 16 -10 16 -11 0 0 -10 -7 -18
-15 -18 -11 0 -15 12 -15 50 0 36 4 50 14 50 8 0 17 -8 21 -17z m136 7 c22
-12 26 -59 7 -78 -7 -7 -21 -12 -33 -12 -29 0 -45 19 -45 52 0 39 34 57 71 38z
m162 -5 c-1 -5 -12 -12 -24 -15 -29 -7 -34 -23 -13 -41 15 -12 16 -12 10 9 -6
18 -4 22 13 22 17 0 21 -6 21 -30 0 -27 -3 -30 -29 -30 -20 0 -35 8 -45 22
-21 29 -20 34 5 59 20 20 66 23 62 4z m97 -31 c11 -25 20 -47 20 -48 0 -1 -22
-2 -49 -2 l-49 0 16 40 c13 35 28 55 40 56 1 0 12 -21 22 -46z m76 24 l7 -23
8 23 c16 43 35 28 45 -36 5 -35 4 -42 -10 -42 -9 0 -16 8 -16 18 -1 16 -1 16
-11 0 -5 -10 -14 -18 -19 -18 -6 0 -11 8 -11 18 -1 16 -2 16 -6 0 -2 -10 -11
-18 -20 -18 -13 0 -14 8 -9 42 10 63 28 79 42 36z m144 7 c0 -8 -10 -16 -22
-16 l-23 -2 23 -4 c12 -2 22 -9 22 -14 0 -5 -10 -14 -22 -19 l-23 -9 23 0 c37
-1 25 -21 -13 -21 -35 0 -35 0 -35 43 0 51 4 57 42 57 18 0 28 -5 28 -15z
m275 -2 c6 -17 7 -17 16 0 18 31 29 18 29 -33 0 -53 -18 -68 -39 -32 -10 16
-10 16 -11 0 0 -10 -7 -18 -15 -18 -11 0 -15 12 -15 50 0 36 4 50 14 50 8 0
17 -8 21 -17z m136 7 c22 -12 26 -59 7 -78 -15 -15 -51 -15 -66 0 -7 7 -12 24
-12 38 0 44 30 61 71 40z m119 -25 c0 -28 4 -35 20 -35 11 0 20 -7 20 -15 0
-10 -11 -15 -35 -15 -35 0 -35 0 -35 43 0 24 3 47 7 50 15 15 23 5 23 -28z
m88 -18 c2 -37 0 -47 -12 -47 -12 0 -16 12 -16 51 0 66 24 62 28 -4z m82 38
c0 -8 -10 -16 -22 -16 l-23 -2 23 -4 c27 -5 29 -23 2 -30 -11 -3 -20 -12 -20
-19 0 -8 -7 -14 -15 -14 -11 0 -15 11 -15 43 0 51 4 57 42 57 18 0 28 -5 28
-15z m88 -2 c2 -8 -7 -14 -25 -14 -23 -1 -24 -2 -5 -6 12 -2 22 -11 22 -18 0
-7 -10 -16 -22 -18 -20 -4 -19 -4 5 -6 43 -2 32 -21 -13 -21 l-40 0 0 43 c0
24 3 47 7 51 11 11 66 2 71 -11z m-88 -94 c0 -5 -7 -9 -15 -9 -9 0 -12 6 -9
15 6 15 24 11 24 -6z m-745 -69 l0 -55 -60 -3 c-91 -3 -105 -9 -105 -37 0 -14
-4 -25 -8 -25 -6 0 -8 145 -2 178 0 1 39 1 88 0 l87 -3 0 -55z m345 18 c0 -49
-5 -47 -14 5 -4 23 -3 37 4 37 5 0 10 -19 10 -42z m-540 -38 l0 -60 -210 0
-210 0 0 60 0 60 210 0 210 0 0 -60z m500 0 l0 -60 -80 0 -80 0 0 -175 0 -175
-60 0 -60 0 0 115 0 115 -85 0 -85 0 0 60 0 59 83 3 82 3 3 58 3 57 139 0 140
0 0 -60z m530 -175 l0 -235 -60 0 -60 0 0 175 0 175 -175 0 -175 0 0 60 0 60
235 0 235 0 0 -235z m-1030 -80 l0 -155 -60 0 -60 0 0 95 0 95 -150 0 -150 0
0 60 0 60 210 0 210 0 0 -155z"/>
<path d="M1105 610 c-7 -12 12 -40 27 -40 13 0 6 43 -9 47 -6 2 -14 -1 -18 -7z"/>
<path d="M1995 610 c-7 -12 12 -40 27 -40 13 0 6 43 -9 47 -6 2 -14 -1 -18 -7z"/>
<path d="M582 973 c-12 -24 -8 -123 5 -131 6 -4 79 -6 162 -4 l152 3 -3 72 -3
72 -152 3 c-137 2 -153 1 -161 -15z m298 -53 l0 -60 -145 0 -145 0 0 60 0 60
145 0 145 0 0 -60z"/>
<path d="M1535 967 c-4 -13 -5 -46 -3 -73 l3 -49 149 -5 c94 -3 154 -1 163 5
10 8 13 29 11 75 l-3 65 -157 3 -157 3 -6 -24z m305 -47 l0 -60 -145 0 -145 0
0 60 0 60 145 0 145 0 0 -60z"/>
<path d="M675 728 c-72 -42 -96 -128 -55 -196 26 -43 98 -76 143 -66 92 19
141 115 102 197 -31 65 -131 99 -190 65z m110 -12 c40 -17 75 -68 75 -111 0
-71 -76 -134 -146 -120 -42 7 -90 55 -96 94 -9 63 33 133 87 144 37 8 46 7 80
-7z"/>
<path d="M730 670 c0 -25 4 -39 10 -35 6 3 10 19 10 35 0 16 -4 32 -10 35 -6
4 -10 -10 -10 -35z"/>
<path d="M666 648 c-38 -54 1 -132 67 -132 41 0 82 32 89 69 6 31 -17 85 -37
85 -13 0 -12 -5 5 -28 25 -34 19 -74 -13 -97 -29 -20 -49 -19 -81 6 -30 24
-34 63 -10 97 8 12 11 22 5 22 -5 0 -17 -10 -25 -22z"/>
<path d="M383 522 c-8 -5 -13 -45 -15 -117 l-3 -110 -82 -3 c-77 -3 -83 -4
-89 -26 -3 -13 -5 -30 -4 -37 7 -46 3 -48 -82 -51 l-83 -3 0 -75 0 -75 160 0
160 0 5 55 5 55 80 3 c48 2 82 8 87 15 12 18 10 335 -2 358 -9 15 -21 19 -68
19 -31 0 -62 -4 -69 -8z m127 -141 c0 -70 -3 -149 -6 -175 l-7 -46 -83 0 -84
0 0 -60 0 -60 -150 0 -150 0 0 60 0 60 90 0 90 0 0 60 0 60 85 0 85 0 0 115 0
115 65 0 65 0 0 -129z"/>
<path d="M582 333 c-12 -24 -9 -120 4 -133 7 -7 68 -9 160 -8 l149 3 3 69 c2
49 -1 72 -10 77 -7 5 -77 9 -155 9 -126 0 -143 -2 -151 -17z m298 -63 l0 -60
-145 0 -145 0 0 60 0 60 145 0 145 0 0 -60z"/>
</g>
</svg>
