<svg id="svg" version="1.1" xmlns="http://www.w3.org/2000/svg" xmlns:xlink="http://www.w3.org/1999/xlink" width="400" height="55.55555555555556" viewBox="0, 0, 400,55.55555555555556"><g id="svgg"><path id="path0" d="M104.333 11.500 C 104.333 11.592,104.234 11.667,104.112 11.667 C 103.989 11.667,103.896 11.834,103.903 12.042 C 103.911 12.270,103.830 12.399,103.696 12.371 C 103.575 12.346,103.523 12.402,103.582 12.497 C 103.640 12.592,103.571 12.714,103.427 12.769 C 103.284 12.824,103.167 12.978,103.167 13.111 C 103.167 13.244,103.092 13.307,103.000 13.250 C 102.908 13.193,102.833 13.252,102.833 13.381 C 102.833 13.689,103.370 14.167,103.716 14.167 C 103.903 14.167,103.956 14.255,103.883 14.446 C 103.801 14.657,103.843 14.699,104.054 14.617 C 104.208 14.559,104.333 14.585,104.333 14.676 C 104.333 14.848,105.146 15.244,105.387 15.189 C 105.463 15.172,105.483 15.226,105.432 15.309 C 105.333 15.469,106.113 16.333,106.356 16.333 C 106.435 16.333,106.500 16.446,106.500 16.583 C 106.500 16.721,106.610 16.833,106.744 16.833 C 106.878 16.833,107.069 16.983,107.167 17.167 C 107.265 17.350,107.497 17.500,107.682 17.500 C 107.868 17.500,107.973 17.425,107.917 17.333 C 107.860 17.242,107.931 17.167,108.073 17.167 C 108.216 17.167,108.333 17.042,108.333 16.889 C 108.333 16.736,108.375 16.653,108.427 16.705 C 108.542 16.820,109.426 15.965,109.372 15.792 C 109.351 15.723,109.437 15.667,109.565 15.667 C 109.692 15.667,109.786 15.535,109.773 15.375 C 109.749 15.072,109.444 14.667,109.239 14.667 C 109.175 14.667,108.951 14.498,108.743 14.292 C 108.140 13.694,107.876 13.513,107.768 13.621 C 107.712 13.677,107.667 13.589,107.667 13.427 C 107.667 13.251,107.578 13.165,107.448 13.215 C 107.328 13.261,107.084 13.082,106.906 12.817 C 106.729 12.551,106.456 12.334,106.301 12.334 C 106.146 12.334,105.921 12.202,105.801 12.042 C 105.681 11.881,105.471 11.726,105.333 11.696 C 105.196 11.666,105.058 11.572,105.028 11.488 C 104.953 11.279,104.333 11.290,104.333 11.500 M348.119 13.603 C 348.053 13.669,348.000 14.010,348.000 14.361 C 348.000 14.713,347.925 15.000,347.833 15.000 C 347.742 15.000,347.667 15.142,347.667 15.316 C 347.667 15.489,347.555 15.674,347.419 15.726 C 347.284 15.778,347.214 15.929,347.265 16.061 C 347.369 16.333,346.848 17.028,346.637 16.898 C 346.562 16.852,346.500 16.935,346.500 17.083 C 346.500 17.232,346.425 17.307,346.333 17.250 C 346.242 17.193,346.167 17.307,346.167 17.502 C 346.167 17.885,345.808 18.333,345.502 18.333 C 345.398 18.333,345.360 18.408,345.417 18.500 C 345.473 18.592,345.440 18.667,345.343 18.667 C 345.246 18.667,345.167 18.779,345.167 18.917 C 345.167 19.054,345.108 19.148,345.035 19.125 C 344.857 19.068,343.905 20.035,343.962 20.214 C 343.988 20.293,343.931 20.311,343.837 20.253 C 343.744 20.194,343.667 20.226,343.667 20.323 C 343.667 20.421,343.586 20.500,343.488 20.500 C 343.219 20.500,342.833 20.940,342.833 21.248 C 342.833 21.397,342.758 21.473,342.667 21.417 C 342.575 21.360,342.500 21.393,342.500 21.490 C 342.500 21.587,342.383 21.667,342.240 21.667 C 342.097 21.667,342.027 21.742,342.083 21.833 C 342.140 21.925,342.102 22.000,341.998 22.000 C 341.759 22.000,341.333 22.420,341.333 22.655 C 341.333 22.753,341.187 22.833,341.008 22.833 C 340.830 22.833,340.607 22.965,340.513 23.125 C 340.420 23.285,340.341 23.357,340.338 23.284 C 340.336 23.211,340.149 23.324,339.925 23.534 C 339.278 24.140,339.000 24.354,339.000 24.248 C 339.000 24.194,338.823 24.341,338.606 24.575 C 338.389 24.809,338.117 25.000,338.000 25.000 C 337.884 25.000,337.655 25.154,337.492 25.343 C 337.328 25.531,337.038 25.697,336.847 25.711 C 336.656 25.726,336.500 25.802,336.500 25.881 C 336.500 26.147,336.026 26.500,335.669 26.500 C 335.473 26.500,335.360 26.575,335.417 26.667 C 335.473 26.758,335.363 26.833,335.171 26.833 C 334.980 26.833,334.780 26.945,334.727 27.082 C 334.675 27.219,334.565 27.290,334.483 27.239 C 334.400 27.188,334.333 27.264,334.333 27.407 C 334.333 27.550,334.234 27.667,334.112 27.667 C 333.990 27.667,333.527 27.851,333.083 28.075 C 332.639 28.300,332.202 28.438,332.112 28.383 C 332.021 28.327,332.001 28.367,332.067 28.474 C 332.145 28.601,332.040 28.667,331.760 28.667 C 331.525 28.667,331.333 28.742,331.333 28.833 C 331.333 28.925,331.148 29.000,330.922 29.000 C 330.625 29.000,330.537 29.069,330.606 29.250 C 330.692 29.474,330.341 29.568,329.727 29.486 C 329.668 29.478,329.568 29.557,329.504 29.661 C 329.439 29.765,329.225 29.862,329.027 29.877 C 328.829 29.892,328.667 29.963,328.667 30.035 C 328.667 30.108,328.484 30.167,328.260 30.167 C 328.036 30.167,327.807 30.242,327.750 30.333 C 327.693 30.425,327.464 30.500,327.240 30.500 C 326.899 30.500,326.833 30.581,326.833 31.000 C 326.833 31.349,326.915 31.500,327.103 31.500 C 327.293 31.500,327.346 31.601,327.282 31.844 C 327.227 32.054,327.285 32.222,327.430 32.278 C 327.560 32.328,327.667 32.548,327.667 32.768 C 327.667 32.987,327.742 33.167,327.833 33.167 C 327.925 33.167,328.000 33.285,328.000 33.429 C 328.000 33.573,328.117 33.807,328.260 33.950 C 328.402 34.093,328.473 34.329,328.417 34.475 C 328.361 34.621,328.369 34.687,328.433 34.623 C 328.498 34.558,328.644 34.633,328.758 34.790 C 328.983 35.097,329.745 34.853,330.050 34.375 C 330.123 34.261,330.295 34.167,330.432 34.167 C 330.569 34.167,330.842 34.017,331.038 33.833 C 331.235 33.650,331.500 33.500,331.627 33.500 C 331.753 33.500,331.966 33.391,332.100 33.257 C 332.234 33.123,332.453 33.057,332.588 33.108 C 332.741 33.167,332.833 33.102,332.833 32.934 C 332.833 32.778,332.972 32.667,333.167 32.667 C 333.350 32.667,333.500 32.592,333.500 32.500 C 333.500 32.408,333.688 32.333,333.917 32.333 C 334.146 32.333,334.333 32.258,334.333 32.167 C 334.333 32.075,334.465 32.000,334.627 32.000 C 334.788 32.000,335.013 31.850,335.128 31.667 C 335.242 31.483,335.437 31.333,335.559 31.333 C 335.682 31.333,335.953 31.185,336.163 31.003 C 336.372 30.822,336.595 30.706,336.658 30.745 C 336.721 30.784,336.878 30.669,337.006 30.491 C 337.135 30.313,337.376 30.167,337.542 30.167 C 337.708 30.167,337.887 30.055,337.939 29.918 C 337.992 29.781,338.102 29.710,338.184 29.761 C 338.266 29.812,338.333 29.750,338.333 29.624 C 338.333 29.498,338.596 29.293,338.917 29.167 C 339.237 29.041,339.500 28.877,339.500 28.802 C 339.500 28.728,339.607 28.667,339.738 28.667 C 339.869 28.667,340.123 28.479,340.304 28.250 C 340.484 28.021,340.714 27.833,340.816 27.833 C 340.917 27.833,341.000 27.758,341.000 27.667 C 341.000 27.575,341.150 27.500,341.333 27.500 C 341.660 27.500,341.667 27.611,341.667 33.343 C 341.667 37.308,341.612 39.152,341.495 39.080 C 341.380 39.009,341.339 39.703,341.370 41.195 L 341.417 43.417 343.542 43.445 L 345.667 43.473 345.667 41.820 C 345.667 40.829,345.600 40.167,345.500 40.167 C 345.392 40.167,345.333 37.694,345.333 33.083 C 345.333 28.472,345.392 26.000,345.500 26.000 C 345.592 26.000,345.667 25.808,345.667 25.573 C 345.667 25.339,345.734 25.188,345.816 25.239 C 345.940 25.316,346.167 24.990,346.167 24.736 C 346.167 24.698,345.904 24.667,345.583 24.667 C 345.176 24.667,345.000 24.591,345.000 24.417 C 345.000 24.278,345.148 24.167,345.333 24.167 C 345.517 24.167,345.667 24.057,345.667 23.922 C 345.667 23.762,345.763 23.714,345.944 23.784 C 346.130 23.855,346.182 23.826,346.101 23.695 C 346.029 23.578,346.084 23.500,346.240 23.500 C 346.383 23.500,346.500 23.431,346.500 23.346 C 346.500 23.146,347.980 21.667,348.180 21.667 C 348.264 21.667,348.333 21.550,348.333 21.407 C 348.333 21.264,348.396 21.186,348.472 21.233 C 348.548 21.280,348.712 21.059,348.836 20.742 C 348.961 20.426,349.165 20.167,349.291 20.167 C 349.417 20.167,349.480 20.103,349.432 20.025 C 349.384 19.947,349.532 19.783,349.762 19.661 C 349.991 19.538,350.141 19.339,350.094 19.219 C 350.048 19.098,350.113 19.000,350.237 19.000 C 350.362 19.000,350.509 18.883,350.564 18.739 C 350.619 18.596,350.721 18.513,350.790 18.555 C 350.962 18.659,351.237 18.322,351.307 17.923 C 351.339 17.743,351.507 17.472,351.682 17.320 C 351.857 17.168,352.000 16.951,352.000 16.837 C 352.000 16.698,352.141 16.666,352.431 16.739 C 352.710 16.809,352.824 16.786,352.754 16.673 C 352.695 16.578,352.764 16.500,352.907 16.500 C 353.260 16.500,353.260 15.571,352.906 15.436 C 352.763 15.381,352.692 15.260,352.749 15.168 C 352.809 15.072,352.670 15.000,352.427 15.000 C 352.192 15.000,352.000 14.925,352.000 14.833 C 352.000 14.742,351.813 14.667,351.583 14.667 C 351.341 14.667,351.167 14.571,351.167 14.438 C 351.167 14.229,350.374 13.929,349.882 13.952 C 349.771 13.957,349.696 13.876,349.715 13.772 C 349.754 13.562,348.313 13.409,348.119 13.603 M86.934 14.097 C 86.879 14.242,86.833 14.959,86.833 15.690 C 86.833 16.421,86.773 16.982,86.698 16.936 C 86.624 16.890,86.568 17.167,86.573 17.551 C 86.579 17.936,86.508 18.266,86.417 18.286 C 86.325 18.306,86.211 18.606,86.164 18.953 C 86.117 19.300,86.002 19.570,85.907 19.553 C 85.813 19.537,85.718 19.762,85.696 20.053 C 85.674 20.345,85.583 20.608,85.495 20.639 C 85.406 20.669,85.333 20.838,85.333 21.014 C 85.333 21.190,85.258 21.333,85.167 21.333 C 85.075 21.333,85.000 21.449,85.000 21.590 C 85.000 21.732,84.850 22.008,84.667 22.205 C 84.483 22.402,84.333 22.691,84.333 22.847 C 84.333 23.003,84.227 23.172,84.096 23.222 C 83.944 23.280,83.894 23.446,83.956 23.683 C 84.022 23.937,83.993 24.015,83.860 23.933 C 83.753 23.867,83.667 23.893,83.667 23.990 C 83.667 24.087,83.546 24.167,83.399 24.167 C 83.201 24.167,83.156 24.269,83.228 24.557 C 83.304 24.857,83.232 24.998,82.916 25.167 C 82.690 25.288,82.459 25.543,82.401 25.735 C 82.344 25.927,82.070 26.322,81.793 26.614 C 81.474 26.950,81.327 27.243,81.393 27.414 C 81.450 27.563,81.435 27.646,81.361 27.601 C 81.287 27.555,81.115 27.644,80.979 27.800 C 80.843 27.956,80.529 28.232,80.282 28.415 C 80.035 28.597,79.833 28.845,79.833 28.966 C 79.833 29.087,79.767 29.145,79.686 29.095 C 79.604 29.045,79.497 29.160,79.447 29.352 C 79.397 29.544,79.277 29.651,79.180 29.591 C 79.070 29.523,79.044 29.588,79.112 29.764 C 79.187 29.960,79.149 30.022,78.986 29.968 C 78.858 29.925,78.653 29.990,78.530 30.113 C 78.407 30.236,78.233 30.291,78.143 30.235 C 78.043 30.173,77.999 30.415,78.031 30.859 C 78.073 31.441,78.141 31.574,78.375 31.534 C 78.535 31.507,78.667 31.569,78.667 31.671 C 78.667 31.896,79.083 32.333,79.296 32.333 C 79.536 32.333,80.014 32.930,79.880 33.064 C 79.814 33.130,79.880 33.138,80.025 33.082 C 80.236 33.002,80.274 33.068,80.209 33.407 C 80.137 33.785,80.182 33.833,80.606 33.828 C 81.122 33.822,81.667 33.495,81.667 33.191 C 81.667 33.088,81.817 32.909,82.000 32.795 C 82.183 32.680,82.333 32.419,82.333 32.215 C 82.333 31.949,82.406 31.872,82.590 31.942 C 82.752 32.004,82.829 31.958,82.798 31.818 C 82.772 31.696,82.910 31.522,83.106 31.433 C 83.302 31.344,83.560 31.022,83.679 30.719 C 83.798 30.415,83.992 30.167,84.109 30.167 C 84.231 30.167,84.281 30.059,84.226 29.915 C 84.154 29.728,84.206 29.692,84.425 29.776 C 84.629 29.855,84.683 29.829,84.600 29.694 C 84.531 29.582,84.591 29.454,84.739 29.398 C 84.883 29.343,85.000 29.156,85.000 28.982 C 85.000 28.809,85.079 28.667,85.177 28.667 C 85.274 28.667,85.312 28.600,85.261 28.517 C 85.210 28.435,85.281 28.325,85.418 28.273 C 85.555 28.220,85.667 28.059,85.667 27.914 C 85.667 27.769,85.854 27.477,86.083 27.265 C 86.313 27.052,86.500 26.793,86.500 26.689 C 86.500 26.585,86.579 26.500,86.677 26.500 C 86.774 26.500,86.812 26.433,86.762 26.352 C 86.711 26.271,86.782 26.112,86.919 25.998 C 87.055 25.885,87.167 25.689,87.167 25.563 C 87.167 25.437,87.279 25.333,87.417 25.333 C 87.556 25.333,87.667 25.185,87.667 25.000 C 87.667 24.676,87.778 24.667,91.667 24.667 C 95.515 24.667,95.667 24.679,95.667 24.990 C 95.667 25.168,95.592 25.360,95.500 25.417 C 95.408 25.473,95.333 26.153,95.333 26.927 C 95.333 27.753,95.265 28.333,95.167 28.333 C 95.074 28.333,95.000 28.781,95.000 29.343 C 95.000 29.974,94.937 30.314,94.833 30.250 C 94.734 30.189,94.667 30.387,94.667 30.740 C 94.667 31.066,94.592 31.333,94.500 31.333 C 94.408 31.333,94.333 31.521,94.333 31.750 C 94.333 31.990,94.237 32.167,94.106 32.167 C 93.954 32.167,93.906 32.304,93.960 32.585 C 94.018 32.893,93.928 33.092,93.619 33.335 C 93.329 33.563,93.226 33.773,93.287 34.007 C 93.336 34.194,93.310 34.326,93.230 34.299 C 93.038 34.235,92.000 35.230,92.000 35.476 C 92.000 35.650,91.777 35.737,91.458 35.686 C 91.390 35.676,91.333 35.784,91.333 35.927 C 91.333 36.069,91.258 36.140,91.167 36.083 C 91.075 36.027,91.000 36.097,91.000 36.240 C 91.000 36.383,90.904 36.500,90.787 36.500 C 90.670 36.500,90.465 36.650,90.333 36.833 C 90.201 37.017,89.960 37.167,89.797 37.167 C 89.633 37.167,89.500 37.288,89.500 37.436 C 89.500 37.624,89.398 37.679,89.166 37.618 C 88.983 37.570,88.776 37.618,88.708 37.724 C 88.584 37.915,88.030 38.213,87.448 38.400 C 87.282 38.454,87.186 38.563,87.235 38.642 C 87.284 38.721,87.139 38.766,86.912 38.741 C 86.685 38.716,86.500 38.764,86.500 38.848 C 86.500 38.932,86.318 39.000,86.095 39.000 C 85.873 39.000,85.570 39.120,85.423 39.267 C 85.243 39.448,84.947 39.514,84.509 39.472 C 84.153 39.438,83.897 39.469,83.941 39.540 C 83.985 39.611,83.920 39.708,83.796 39.756 C 83.507 39.866,83.414 40.852,83.698 40.793 C 83.810 40.769,83.908 40.862,83.917 41.000 C 83.925 41.137,84.022 41.231,84.133 41.208 C 84.248 41.184,84.333 41.349,84.333 41.593 C 84.333 41.835,84.405 41.975,84.500 41.917 C 84.592 41.860,84.667 41.931,84.667 42.073 C 84.667 42.216,84.742 42.333,84.833 42.333 C 84.925 42.333,85.000 42.472,85.000 42.641 C 85.000 43.291,86.427 43.856,86.750 43.333 C 86.807 43.242,86.995 43.167,87.168 43.167 C 87.342 43.167,87.543 43.073,87.617 42.958 C 87.791 42.685,88.428 42.333,88.748 42.333 C 88.886 42.333,89.000 42.212,89.000 42.064 C 89.000 41.871,89.101 41.821,89.355 41.887 C 89.557 41.940,89.815 41.876,89.952 41.739 C 90.085 41.606,90.262 41.540,90.347 41.592 C 90.431 41.644,90.500 41.607,90.500 41.510 C 90.500 41.413,90.650 41.333,90.833 41.333 C 91.019 41.333,91.167 41.222,91.167 41.083 C 91.167 40.931,91.322 40.833,91.564 40.833 C 91.821 40.833,91.992 40.716,92.048 40.500 C 92.112 40.257,92.276 40.167,92.651 40.167 C 92.968 40.167,93.167 40.082,93.167 39.946 C 93.167 39.715,93.845 39.000,94.064 39.000 C 94.271 39.000,94.659 38.548,94.548 38.437 C 94.491 38.380,94.537 38.333,94.651 38.333 C 94.873 38.333,95.333 37.933,95.333 37.739 C 95.333 37.675,95.528 37.441,95.765 37.221 C 96.011 36.994,96.157 36.716,96.104 36.577 C 96.053 36.443,96.088 36.333,96.184 36.333 C 96.476 36.333,96.833 35.876,96.833 35.502 C 96.833 35.307,96.908 35.193,97.000 35.250 C 97.095 35.309,97.167 35.165,97.167 34.917 C 97.167 34.666,97.238 34.525,97.335 34.584 C 97.427 34.641,97.545 34.552,97.597 34.386 C 97.649 34.219,97.761 33.953,97.845 33.794 C 97.930 33.635,98.000 33.316,98.000 33.086 C 98.000 32.855,98.075 32.667,98.167 32.667 C 98.258 32.667,98.333 32.446,98.333 32.177 C 98.333 31.907,98.408 31.640,98.500 31.583 C 98.592 31.527,98.667 31.189,98.667 30.833 C 98.667 30.477,98.742 30.140,98.833 30.083 C 98.925 30.027,99.000 29.610,99.000 29.157 C 99.000 28.536,99.062 28.333,99.250 28.333 C 99.457 28.333,99.500 28.019,99.500 26.500 L 99.500 24.667 103.208 24.647 C 105.248 24.636,106.973 24.636,107.042 24.647 C 107.110 24.658,107.167 23.823,107.167 22.792 L 107.167 20.917 98.333 20.963 C 88.698 21.013,89.206 21.068,89.834 20.038 C 90.017 19.738,90.167 19.231,90.167 18.913 C 90.167 18.594,90.242 18.333,90.333 18.333 C 90.425 18.333,90.500 18.071,90.500 17.750 C 90.500 17.343,90.575 17.167,90.750 17.167 C 90.897 17.167,91.001 17.013,91.002 16.792 C 91.006 16.182,91.191 15.667,91.406 15.667 C 91.517 15.667,91.606 15.445,91.606 15.167 C 91.606 14.726,91.548 14.667,91.124 14.667 C 90.860 14.667,90.530 14.554,90.393 14.417 C 90.232 14.256,89.820 14.167,89.238 14.167 C 88.740 14.167,88.333 14.092,88.333 14.000 C 88.333 13.713,87.048 13.802,86.934 14.097 M161.105 14.542 C 161.050 14.748,161.004 15.273,161.002 15.708 C 161.001 16.255,160.931 16.500,160.778 16.500 C 160.611 16.500,160.575 16.726,160.632 17.417 C 160.695 18.183,160.663 18.333,160.437 18.333 C 160.228 18.333,160.167 18.502,160.167 19.083 C 160.167 19.496,160.094 19.833,160.004 19.833 C 159.912 19.833,159.885 20.051,159.942 20.333 C 160.020 20.725,159.983 20.833,159.771 20.833 C 159.574 20.833,159.500 20.988,159.500 21.396 C 159.500 21.706,159.387 22.053,159.250 22.167 C 159.112 22.281,159.000 22.552,159.000 22.770 C 159.000 22.988,158.925 23.167,158.833 23.167 C 158.742 23.167,158.683 23.223,158.702 23.292 C 158.771 23.533,158.263 25.500,158.132 25.500 C 158.060 25.500,158.000 25.725,158.000 26.000 C 158.000 26.275,157.930 26.500,157.845 26.500 C 157.760 26.500,157.664 26.669,157.633 26.875 C 157.601 27.081,157.494 27.235,157.394 27.216 C 157.288 27.196,157.221 27.437,157.232 27.799 C 157.244 28.212,157.181 28.403,157.042 28.375 C 156.927 28.352,156.833 28.483,156.833 28.667 C 156.833 28.850,156.757 29.000,156.663 29.000 C 156.566 29.000,156.538 29.176,156.598 29.417 C 156.677 29.732,156.637 29.833,156.435 29.833 C 156.278 29.833,156.167 29.971,156.167 30.167 C 156.167 30.350,156.099 30.500,156.017 30.500 C 155.934 30.500,155.733 30.871,155.570 31.325 C 155.407 31.778,155.201 32.105,155.113 32.050 C 155.017 31.991,154.986 32.131,155.036 32.392 C 155.094 32.695,155.049 32.833,154.894 32.833 C 154.769 32.833,154.667 32.983,154.667 33.167 C 154.667 33.350,154.592 33.500,154.500 33.500 C 154.408 33.500,154.333 33.642,154.333 33.816 C 154.333 33.989,154.222 34.174,154.086 34.226 C 153.948 34.279,153.881 34.432,153.936 34.573 C 154.092 34.979,153.583 35.333,152.845 35.333 C 152.472 35.333,152.167 35.406,152.167 35.494 C 152.167 35.584,151.412 35.676,150.458 35.703 C 148.877 35.746,148.750 35.775,148.750 36.083 C 148.750 36.267,148.833 36.402,148.934 36.383 C 149.040 36.364,149.087 36.510,149.044 36.732 C 149.003 36.946,149.088 37.230,149.236 37.378 C 149.381 37.524,149.500 37.873,149.500 38.155 C 149.500 38.475,149.578 38.651,149.708 38.625 C 149.823 38.602,149.918 38.709,149.919 38.863 C 149.920 39.017,149.976 39.198,150.044 39.266 C 150.111 39.334,150.169 39.583,150.172 39.819 C 150.180 40.458,150.543 40.833,151.153 40.833 C 151.446 40.833,151.645 40.766,151.594 40.684 C 151.543 40.602,151.614 40.492,151.751 40.439 C 151.888 40.387,152.000 40.184,152.000 39.989 C 152.000 39.667,152.076 39.640,152.832 39.692 C 153.389 39.731,153.690 39.681,153.743 39.542 C 153.796 39.405,154.192 39.333,154.902 39.333 C 155.495 39.333,156.027 39.258,156.083 39.167 C 156.140 39.075,156.669 39.000,157.260 39.000 C 157.850 39.000,158.333 38.932,158.333 38.848 C 158.333 38.692,159.406 38.553,161.750 38.406 C 162.483 38.360,163.233 38.251,163.417 38.164 C 163.600 38.076,164.275 37.985,164.917 37.961 C 165.743 37.929,166.071 37.856,166.042 37.708 C 166.011 37.556,166.353 37.500,167.319 37.500 C 168.045 37.500,168.664 37.429,168.694 37.343 C 168.725 37.256,169.256 37.169,169.875 37.150 C 170.494 37.130,171.000 37.051,171.000 36.974 C 171.000 36.897,171.510 36.833,172.133 36.833 C 172.793 36.833,173.350 36.750,173.467 36.633 C 173.622 36.478,173.667 36.480,173.667 36.643 C 173.667 36.759,173.753 36.800,173.857 36.735 C 173.989 36.654,174.023 36.752,173.966 37.050 C 173.915 37.314,173.955 37.470,174.066 37.450 C 174.167 37.432,174.275 37.642,174.304 37.917 C 174.334 38.192,174.428 38.488,174.513 38.575 C 174.597 38.662,174.667 38.868,174.667 39.033 C 174.667 39.198,174.742 39.333,174.833 39.333 C 174.925 39.333,175.000 39.543,175.000 39.800 C 175.000 40.057,175.080 40.347,175.178 40.445 C 175.276 40.543,175.377 40.764,175.402 40.937 C 175.462 41.346,176.427 41.393,176.398 40.986 C 176.385 40.795,176.489 40.743,176.773 40.797 C 176.997 40.840,177.167 40.792,177.167 40.686 C 177.167 40.584,177.312 40.500,177.490 40.500 C 177.668 40.500,177.860 40.425,177.917 40.333 C 177.973 40.242,178.165 40.167,178.343 40.167 C 178.521 40.167,178.667 40.053,178.667 39.913 C 178.667 39.732,178.789 39.682,179.098 39.738 C 179.425 39.798,179.507 39.758,179.437 39.575 C 179.386 39.442,179.438 39.333,179.553 39.333 C 179.806 39.333,179.906 38.398,179.668 38.251 C 179.576 38.194,179.500 37.926,179.500 37.657 C 179.500 37.332,179.416 37.167,179.250 37.167 C 179.112 37.167,179.000 37.025,179.000 36.851 C 179.000 36.678,178.883 36.491,178.739 36.436 C 178.596 36.381,178.526 36.260,178.583 36.168 C 178.640 36.076,178.607 36.000,178.510 36.000 C 178.413 36.000,178.333 35.850,178.333 35.667 C 178.333 35.483,178.277 35.333,178.208 35.332 C 178.063 35.331,177.667 34.527,177.667 34.235 C 177.667 34.125,177.554 33.992,177.417 33.940 C 177.279 33.887,177.167 33.708,177.167 33.542 C 177.167 33.376,177.017 33.132,176.833 33.000 C 176.650 32.868,176.500 32.631,176.500 32.473 C 176.500 32.315,176.425 32.140,176.333 32.083 C 176.242 32.027,176.167 31.835,176.167 31.657 C 176.167 31.479,176.086 31.333,175.988 31.333 C 175.691 31.333,175.333 30.879,175.333 30.502 C 175.333 30.307,175.258 30.193,175.167 30.250 C 175.026 30.337,174.926 30.025,174.974 29.645 C 174.981 29.587,174.840 29.407,174.660 29.244 C 174.480 29.081,174.333 28.810,174.333 28.641 C 174.333 28.472,174.250 28.333,174.149 28.333 C 173.758 28.333,173.083 27.584,173.137 27.208 C 173.173 26.951,173.105 26.833,172.918 26.833 C 172.769 26.833,172.693 26.758,172.750 26.667 C 172.807 26.575,172.736 26.500,172.593 26.500 C 172.450 26.500,172.333 26.387,172.333 26.250 C 172.333 26.113,172.199 25.869,172.034 25.708 C 171.719 25.402,171.167 25.274,171.167 25.507 C 171.167 25.583,170.960 25.668,170.708 25.697 C 170.451 25.727,170.268 25.841,170.292 25.958 C 170.315 26.073,170.208 26.167,170.056 26.167 C 169.903 26.167,169.827 26.216,169.886 26.275 C 170.034 26.423,169.486 26.821,169.125 26.828 C 168.965 26.831,168.833 26.908,168.833 27.000 C 168.833 27.092,168.725 27.167,168.594 27.167 C 168.196 27.167,168.368 27.794,168.949 28.460 C 169.249 28.803,169.495 29.140,169.497 29.208 C 169.499 29.277,169.621 29.333,169.768 29.333 C 169.977 29.333,170.011 29.434,169.921 29.791 C 169.858 30.043,169.853 30.203,169.910 30.146 C 170.099 29.956,171.000 30.899,171.000 31.287 C 171.000 31.496,171.075 31.667,171.167 31.667 C 171.258 31.667,171.333 31.765,171.333 31.885 C 171.333 32.005,171.478 32.259,171.655 32.449 C 172.311 33.153,172.182 33.408,171.122 33.500 C 170.593 33.546,170.143 33.658,170.122 33.750 C 170.100 33.845,169.460 33.917,168.625 33.917 C 167.823 33.917,167.166 33.973,167.167 34.042 C 167.167 34.110,166.639 34.167,165.995 34.167 C 165.107 34.167,164.800 34.227,164.727 34.417 C 164.650 34.617,164.284 34.667,162.894 34.667 C 161.503 34.667,161.137 34.717,161.060 34.917 C 160.985 35.114,160.642 35.167,159.449 35.167 C 158.270 35.167,157.978 35.122,158.133 34.967 C 158.243 34.857,158.333 34.632,158.333 34.467 C 158.333 34.302,158.408 34.167,158.500 34.167 C 158.592 34.167,158.667 34.017,158.667 33.833 C 158.667 33.650,158.742 33.500,158.833 33.500 C 158.925 33.500,159.000 33.321,159.000 33.101 C 159.000 32.882,159.112 32.659,159.250 32.606 C 159.387 32.554,159.500 32.396,159.500 32.255 C 159.500 32.115,159.575 32.000,159.667 32.000 C 159.758 32.000,159.833 31.850,159.833 31.667 C 159.833 31.483,159.908 31.333,160.000 31.333 C 160.092 31.333,160.167 31.071,160.167 30.750 C 160.167 30.429,160.237 30.167,160.322 30.167 C 160.408 30.167,160.502 29.960,160.531 29.708 C 160.562 29.435,160.672 29.268,160.804 29.296 C 160.925 29.321,160.981 29.271,160.928 29.184 C 160.874 29.098,160.931 28.926,161.054 28.803 C 161.177 28.680,161.266 28.419,161.251 28.223 C 161.234 27.989,161.301 27.895,161.446 27.951 C 161.604 28.012,161.667 27.865,161.667 27.434 C 161.667 27.104,161.742 26.833,161.833 26.833 C 161.925 26.833,162.000 26.646,162.000 26.417 C 162.000 26.188,162.075 26.000,162.167 26.000 C 162.258 26.000,162.333 25.775,162.333 25.500 C 162.333 25.167,162.417 25.000,162.583 25.000 C 162.721 25.000,162.834 24.869,162.836 24.708 C 162.839 24.367,163.220 23.225,163.386 23.059 C 163.449 22.996,163.500 22.732,163.500 22.472 C 163.500 22.213,163.575 22.000,163.667 22.000 C 163.758 22.000,163.824 21.944,163.814 21.875 C 163.721 21.291,163.866 20.500,164.066 20.500 C 164.209 20.500,164.337 20.244,164.399 19.833 C 164.455 19.467,164.545 18.867,164.601 18.501 C 164.656 18.135,164.771 17.878,164.855 17.930 C 164.939 17.982,164.998 17.963,164.984 17.887 C 164.925 17.544,165.010 16.621,165.093 16.705 C 165.236 16.847,166.065 15.955,166.089 15.633 C 166.100 15.477,166.047 15.388,165.970 15.435 C 165.894 15.482,165.786 15.404,165.731 15.261 C 165.657 15.069,165.394 15.000,164.732 15.000 C 164.238 15.000,163.833 14.925,163.833 14.833 C 163.833 14.742,163.493 14.667,163.078 14.667 C 162.561 14.667,162.293 14.588,162.227 14.417 C 162.069 14.006,161.223 14.100,161.105 14.542 M101.000 14.833 C 101.000 14.925,100.920 15.000,100.821 15.000 C 100.502 15.000,100.220 15.412,100.099 16.058 C 100.034 16.406,99.939 16.798,99.889 16.929 C 99.830 17.081,99.908 17.169,100.107 17.172 C 100.499 17.179,101.000 17.553,101.000 17.838 C 101.000 17.958,101.040 18.016,101.089 17.967 C 101.203 17.853,103.167 19.770,103.167 19.996 C 103.167 20.090,103.263 20.167,103.380 20.167 C 103.497 20.167,103.701 20.317,103.833 20.500 C 104.085 20.849,104.500 20.953,104.500 20.667 C 104.500 20.575,104.580 20.500,104.679 20.500 C 104.896 20.500,105.333 20.081,105.333 19.872 C 105.333 19.788,105.525 19.633,105.759 19.526 C 105.994 19.419,106.144 19.265,106.094 19.183 C 106.043 19.102,106.115 18.992,106.253 18.939 C 106.647 18.787,106.306 18.000,105.845 18.000 C 105.747 18.000,105.667 17.883,105.667 17.740 C 105.667 17.597,105.592 17.527,105.500 17.583 C 105.408 17.640,105.333 17.572,105.333 17.432 C 105.333 17.273,105.238 17.214,105.081 17.274 C 104.916 17.337,104.858 17.293,104.914 17.144 C 104.963 17.010,104.757 16.761,104.416 16.540 C 104.095 16.333,103.833 16.090,103.833 16.001 C 103.833 15.911,103.565 15.726,103.238 15.589 C 102.911 15.452,102.690 15.264,102.748 15.170 C 102.806 15.077,102.736 15.000,102.593 15.000 C 102.450 15.000,102.333 14.925,102.333 14.833 C 102.333 14.742,102.033 14.667,101.667 14.667 C 101.300 14.667,101.000 14.742,101.000 14.833 M297.232 14.930 C 297.288 15.075,297.333 15.902,297.333 16.766 L 297.333 18.339 305.734 18.330 C 313.156 18.323,314.147 18.292,314.234 18.064 C 314.364 17.726,314.362 15.270,314.232 14.930 C 314.142 14.695,313.228 14.667,305.631 14.667 C 297.949 14.667,297.141 14.692,297.232 14.930 M27.319 15.750 C 27.224 16.323,27.324 17.059,27.514 17.181 C 27.692 17.296,27.701 17.365,27.550 17.463 C 27.435 17.537,27.329 18.087,27.300 18.755 C 27.265 19.575,27.189 19.904,27.042 19.875 C 26.900 19.847,26.833 20.072,26.833 20.583 C 26.833 20.996,26.759 21.333,26.669 21.333 C 26.578 21.333,26.522 21.502,26.544 21.708 C 26.568 21.935,26.501 22.067,26.375 22.042 C 26.240 22.015,26.167 22.206,26.167 22.583 C 26.167 23.008,26.094 23.167,25.898 23.167 C 25.691 23.167,25.645 23.296,25.697 23.738 C 25.734 24.053,25.707 24.275,25.637 24.231 C 25.567 24.188,25.462 24.344,25.403 24.577 C 25.345 24.809,25.230 25.000,25.149 25.000 C 25.067 25.000,25.009 25.056,25.020 25.125 C 25.079 25.502,24.978 25.840,24.833 25.750 C 24.739 25.692,24.667 25.832,24.667 26.073 C 24.667 26.308,24.597 26.500,24.512 26.500 C 24.426 26.500,24.331 26.669,24.299 26.875 C 24.268 27.081,24.155 27.233,24.048 27.212 C 23.934 27.189,23.867 27.359,23.886 27.629 C 23.905 27.916,23.840 28.068,23.708 28.042 C 23.594 28.019,23.500 28.150,23.500 28.333 C 23.500 28.517,23.425 28.667,23.333 28.667 C 23.242 28.667,23.167 28.784,23.167 28.927 C 23.167 29.069,23.092 29.140,23.000 29.083 C 22.905 29.025,22.833 29.165,22.833 29.407 C 22.833 29.641,22.758 29.833,22.667 29.833 C 22.575 29.833,22.500 29.943,22.500 30.078 C 22.500 30.238,22.404 30.286,22.223 30.216 C 22.046 30.149,21.986 30.176,22.058 30.292 C 22.119 30.391,22.051 30.592,21.906 30.737 C 21.761 30.881,21.704 31.000,21.780 31.000 C 21.855 31.000,21.710 31.178,21.458 31.395 C 21.206 31.611,21.000 31.874,21.000 31.978 C 21.000 32.082,20.916 32.167,20.814 32.167 C 20.712 32.167,20.345 32.467,20.000 32.833 C 19.655 33.200,19.276 33.500,19.158 33.500 C 19.041 33.500,18.983 33.539,19.031 33.586 C 19.078 33.634,18.866 33.939,18.559 34.265 C 18.251 34.591,18.000 34.932,18.000 35.023 C 18.000 35.114,17.851 35.142,17.669 35.084 C 17.442 35.012,17.205 35.113,16.909 35.410 C 16.672 35.646,16.396 35.788,16.294 35.726 C 16.178 35.654,16.147 35.707,16.208 35.869 C 16.274 36.040,16.214 36.118,16.028 36.104 C 15.851 36.091,15.768 36.188,15.798 36.372 C 15.834 36.583,15.770 36.632,15.566 36.554 C 15.392 36.487,15.202 36.559,15.067 36.744 C 14.943 36.914,14.739 36.999,14.591 36.943 C 14.449 36.888,14.333 36.916,14.333 37.005 C 14.333 37.094,14.146 37.167,13.917 37.167 C 13.672 37.167,13.517 37.253,13.542 37.375 C 13.568 37.505,13.349 37.603,12.958 37.635 C 12.615 37.664,12.333 37.757,12.333 37.843 C 12.333 37.930,12.161 38.000,11.950 38.000 C 11.739 38.000,11.494 38.072,11.406 38.161 C 11.317 38.250,11.002 38.341,10.706 38.363 C 10.409 38.386,10.167 38.463,10.167 38.535 C 10.167 38.608,9.878 38.667,9.526 38.667 C 8.701 38.667,8.159 39.182,8.466 39.674 C 8.576 39.851,8.667 40.121,8.667 40.276 C 8.667 40.430,8.717 40.505,8.778 40.444 C 8.969 40.253,9.500 40.865,9.500 41.276 C 9.500 41.500,9.589 41.649,9.708 41.625 C 9.824 41.602,9.904 41.725,9.889 41.901 C 9.874 42.076,9.965 42.322,10.090 42.448 C 10.216 42.573,10.282 42.772,10.237 42.890 C 10.179 43.041,10.376 43.115,10.911 43.143 C 11.498 43.173,11.667 43.125,11.667 42.924 C 11.667 42.776,11.811 42.667,12.008 42.667 C 12.196 42.667,12.562 42.557,12.820 42.423 C 13.079 42.289,13.338 42.227,13.396 42.284 C 13.453 42.342,13.500 42.262,13.500 42.108 C 13.500 41.887,13.595 41.851,13.942 41.938 C 14.252 42.016,14.348 41.992,14.265 41.858 C 14.190 41.737,14.278 41.667,14.502 41.667 C 14.697 41.667,14.962 41.573,15.089 41.458 C 15.641 40.964,15.829 40.833,15.993 40.833 C 16.089 40.833,16.167 40.758,16.167 40.667 C 16.167 40.575,16.317 40.500,16.500 40.500 C 16.683 40.500,16.833 40.425,16.833 40.333 C 16.833 40.242,16.975 40.167,17.149 40.167 C 17.322 40.167,17.509 40.049,17.565 39.905 C 17.631 39.731,17.777 39.679,17.999 39.750 C 18.200 39.814,18.333 39.780,18.333 39.666 C 18.333 39.376,18.773 39.000,19.113 38.998 C 19.280 38.998,19.594 38.773,19.810 38.498 C 20.027 38.224,20.341 38.000,20.509 38.000 C 20.677 38.000,20.867 37.913,20.933 37.808 C 21.011 37.680,20.978 37.661,20.833 37.750 C 20.689 37.839,20.655 37.820,20.734 37.692 C 20.799 37.587,20.920 37.500,21.002 37.500 C 21.157 37.500,22.000 36.714,22.000 36.570 C 22.000 36.525,22.225 36.269,22.500 36.000 C 22.775 35.731,23.000 35.543,23.000 35.581 C 23.000 35.620,23.188 35.464,23.417 35.235 C 23.646 35.006,23.833 34.747,23.833 34.659 C 23.833 34.572,23.900 34.519,23.982 34.542 C 24.198 34.602,25.000 33.632,25.000 33.310 C 25.000 33.160,25.257 32.832,25.570 32.582 C 25.884 32.332,26.185 31.949,26.240 31.731 C 26.295 31.512,26.451 31.333,26.587 31.333 C 26.739 31.333,26.833 31.174,26.833 30.917 C 26.833 30.688,26.908 30.500,27.000 30.500 C 27.092 30.500,27.167 30.308,27.167 30.073 C 27.167 29.830,27.239 29.691,27.335 29.751 C 27.427 29.808,27.553 29.718,27.614 29.552 C 27.675 29.386,27.773 29.212,27.830 29.167 C 27.977 29.050,28.667 27.540,28.667 27.335 C 28.667 27.242,28.742 27.167,28.833 27.167 C 28.925 27.167,29.000 26.945,29.000 26.675 C 29.000 26.382,29.118 26.114,29.292 26.013 C 29.452 25.920,29.518 25.841,29.439 25.838 C 29.360 25.836,29.422 25.640,29.577 25.403 C 29.732 25.167,29.819 24.870,29.771 24.745 C 29.719 24.610,29.768 24.549,29.889 24.596 C 30.022 24.647,30.110 24.483,30.137 24.132 C 30.159 23.833,30.250 23.516,30.339 23.428 C 30.428 23.339,30.500 23.089,30.500 22.871 C 30.500 22.654,30.613 22.364,30.750 22.226 C 30.887 22.089,31.000 21.836,31.000 21.665 C 31.000 21.493,31.075 21.307,31.167 21.250 C 31.258 21.193,31.333 20.851,31.333 20.490 C 31.333 20.129,31.408 19.833,31.500 19.833 C 31.592 19.833,31.667 19.496,31.667 19.083 C 31.667 18.671,31.742 18.333,31.833 18.333 C 31.925 18.333,32.000 18.248,32.000 18.144 C 32.000 18.040,32.197 17.786,32.438 17.579 C 32.830 17.242,32.873 16.686,32.488 16.924 C 32.403 16.977,32.333 16.898,32.333 16.749 C 32.333 16.559,32.239 16.507,32.020 16.577 C 31.822 16.640,31.670 16.583,31.608 16.422 C 31.540 16.244,31.278 16.167,30.743 16.167 C 30.284 16.167,29.876 16.066,29.726 15.917 C 29.491 15.682,27.355 15.534,27.319 15.750 M240.653 15.750 C 240.557 16.323,240.657 17.059,240.847 17.181 C 241.025 17.296,241.034 17.365,240.883 17.463 C 240.769 17.537,240.662 18.087,240.633 18.755 C 240.598 19.575,240.522 19.904,240.375 19.875 C 240.233 19.847,240.167 20.072,240.167 20.583 C 240.167 20.996,240.093 21.333,240.002 21.333 C 239.911 21.333,239.855 21.502,239.877 21.708 C 239.901 21.935,239.834 22.067,239.708 22.042 C 239.573 22.015,239.500 22.206,239.500 22.583 C 239.500 23.008,239.427 23.167,239.232 23.167 C 239.024 23.167,238.979 23.296,239.030 23.738 C 239.067 24.053,239.040 24.275,238.970 24.231 C 238.900 24.188,238.795 24.344,238.737 24.577 C 238.678 24.809,238.564 25.000,238.482 25.000 C 238.400 25.000,238.342 25.056,238.353 25.125 C 238.413 25.502,238.312 25.840,238.167 25.750 C 238.072 25.692,238.000 25.832,238.000 26.073 C 238.000 26.308,237.930 26.500,237.845 26.500 C 237.760 26.500,237.664 26.669,237.633 26.875 C 237.601 27.081,237.488 27.233,237.382 27.212 C 237.267 27.189,237.201 27.359,237.219 27.629 C 237.239 27.916,237.173 28.068,237.042 28.042 C 236.927 28.019,236.833 28.150,236.833 28.333 C 236.833 28.517,236.758 28.667,236.667 28.667 C 236.575 28.667,236.500 28.784,236.500 28.927 C 236.500 29.069,236.425 29.140,236.333 29.083 C 236.239 29.025,236.167 29.165,236.167 29.407 C 236.167 29.641,236.092 29.833,236.000 29.833 C 235.908 29.833,235.833 29.943,235.833 30.078 C 235.833 30.238,235.737 30.286,235.556 30.216 C 235.379 30.149,235.319 30.176,235.391 30.292 C 235.453 30.391,235.385 30.592,235.240 30.737 C 235.095 30.881,235.038 31.000,235.113 31.000 C 235.188 31.000,235.044 31.178,234.792 31.395 C 234.540 31.611,234.333 31.874,234.333 31.978 C 234.333 32.082,234.240 32.167,234.125 32.168 C 234.010 32.168,233.662 32.468,233.351 32.834 C 233.041 33.200,232.672 33.500,232.532 33.500 C 232.392 33.500,232.317 33.539,232.364 33.586 C 232.412 33.634,232.199 33.939,231.892 34.265 C 231.585 34.591,231.333 34.932,231.333 35.023 C 231.333 35.114,231.185 35.142,231.003 35.084 C 230.775 35.012,230.539 35.113,230.242 35.410 C 230.005 35.646,229.729 35.788,229.628 35.726 C 229.512 35.654,229.480 35.707,229.542 35.869 C 229.608 36.040,229.548 36.118,229.362 36.104 C 229.184 36.091,229.101 36.188,229.132 36.372 C 229.167 36.583,229.104 36.632,228.899 36.554 C 228.725 36.487,228.535 36.559,228.401 36.744 C 228.276 36.914,228.072 36.999,227.925 36.943 C 227.783 36.888,227.667 36.916,227.667 37.005 C 227.667 37.094,227.479 37.167,227.250 37.167 C 227.006 37.167,226.851 37.253,226.875 37.375 C 226.901 37.505,226.683 37.603,226.292 37.635 C 225.948 37.664,225.667 37.757,225.667 37.843 C 225.667 37.930,225.494 38.000,225.283 38.000 C 225.073 38.000,224.828 38.072,224.739 38.161 C 224.650 38.250,224.335 38.341,224.039 38.363 C 223.743 38.386,223.500 38.463,223.500 38.535 C 223.500 38.608,223.212 38.667,222.859 38.667 C 222.034 38.667,221.492 39.182,221.799 39.674 C 221.910 39.851,222.000 40.121,222.000 40.276 C 222.000 40.430,222.050 40.505,222.111 40.444 C 222.302 40.253,222.833 40.865,222.833 41.276 C 222.833 41.500,222.922 41.649,223.042 41.625 C 223.157 41.602,223.238 41.725,223.223 41.901 C 223.207 42.076,223.298 42.322,223.424 42.448 C 223.550 42.573,223.616 42.772,223.570 42.890 C 223.512 43.041,223.709 43.115,224.244 43.143 C 224.832 43.173,225.000 43.125,225.000 42.924 C 225.000 42.776,225.145 42.667,225.342 42.667 C 225.529 42.667,225.895 42.557,226.154 42.423 C 226.413 42.289,226.671 42.227,226.729 42.284 C 226.786 42.342,226.833 42.262,226.833 42.108 C 226.833 41.887,226.928 41.851,227.275 41.938 C 227.586 42.016,227.681 41.992,227.598 41.858 C 227.524 41.737,227.611 41.667,227.835 41.667 C 228.031 41.667,228.295 41.573,228.423 41.458 C 228.974 40.964,229.163 40.833,229.326 40.833 C 229.422 40.833,229.500 40.758,229.500 40.667 C 229.500 40.575,229.650 40.500,229.833 40.500 C 230.017 40.500,230.167 40.425,230.167 40.333 C 230.167 40.242,230.309 40.167,230.482 40.167 C 230.656 40.167,230.843 40.049,230.898 39.905 C 230.965 39.731,231.110 39.679,231.333 39.750 C 231.533 39.814,231.667 39.780,231.667 39.666 C 231.667 39.362,232.113 39.000,232.488 39.000 C 232.699 39.000,232.833 38.892,232.833 38.722 C 232.833 38.569,232.883 38.494,232.943 38.554 C 233.004 38.615,233.158 38.515,233.286 38.332 C 233.414 38.150,233.660 38.000,233.833 38.000 C 234.006 38.000,234.201 37.913,234.266 37.808 C 234.345 37.679,234.307 37.659,234.151 37.746 C 234.022 37.818,234.179 37.645,234.500 37.362 C 234.821 37.079,235.140 36.844,235.208 36.840 C 235.277 36.836,235.333 36.756,235.333 36.661 C 235.333 36.566,235.558 36.269,235.833 36.000 C 236.108 35.731,236.333 35.543,236.333 35.581 C 236.333 35.620,236.521 35.464,236.750 35.235 C 236.979 35.006,237.167 34.747,237.167 34.659 C 237.167 34.572,237.234 34.519,237.316 34.542 C 237.532 34.602,238.333 33.632,238.333 33.310 C 238.333 33.160,238.590 32.832,238.903 32.582 C 239.217 32.332,239.518 31.949,239.573 31.731 C 239.628 31.512,239.784 31.333,239.920 31.333 C 240.072 31.333,240.167 31.174,240.167 30.917 C 240.167 30.688,240.242 30.500,240.333 30.500 C 240.425 30.500,240.500 30.308,240.500 30.073 C 240.500 29.830,240.572 29.691,240.668 29.751 C 240.760 29.808,240.886 29.718,240.947 29.552 C 241.009 29.386,241.106 29.212,241.164 29.167 C 241.311 29.050,242.000 27.540,242.000 27.335 C 242.000 27.242,242.075 27.167,242.167 27.167 C 242.258 27.167,242.333 26.945,242.333 26.675 C 242.333 26.382,242.452 26.114,242.625 26.013 C 242.785 25.920,242.852 25.841,242.772 25.838 C 242.693 25.836,242.755 25.640,242.910 25.403 C 243.065 25.167,243.153 24.870,243.104 24.745 C 243.053 24.610,243.101 24.549,243.223 24.596 C 243.356 24.647,243.443 24.483,243.470 24.132 C 243.493 23.833,243.584 23.516,243.672 23.428 C 243.761 23.339,243.833 23.089,243.833 22.871 C 243.833 22.654,243.946 22.364,244.083 22.226 C 244.221 22.089,244.333 21.836,244.333 21.665 C 244.333 21.493,244.408 21.307,244.500 21.250 C 244.592 21.193,244.667 20.851,244.667 20.490 C 244.667 20.129,244.742 19.833,244.833 19.833 C 244.925 19.833,245.000 19.496,245.000 19.083 C 245.000 18.671,245.075 18.333,245.167 18.333 C 245.258 18.333,245.333 18.248,245.333 18.144 C 245.333 18.040,245.530 17.786,245.771 17.579 C 246.163 17.242,246.206 16.686,245.822 16.924 C 245.736 16.977,245.667 16.898,245.667 16.749 C 245.667 16.559,245.572 16.507,245.353 16.577 C 245.155 16.640,245.003 16.583,244.942 16.422 C 244.873 16.244,244.611 16.167,244.077 16.167 C 243.617 16.167,243.209 16.066,243.060 15.917 C 242.824 15.682,240.689 15.534,240.653 15.750 M387.000 17.750 C 386.819 17.968,385.341 18.000,375.557 18.000 L 364.322 18.000 364.369 19.792 L 364.417 21.583 374.708 21.626 L 385.000 21.669 385.000 22.551 C 385.000 23.036,384.932 23.505,384.849 23.592 C 384.765 23.679,384.658 24.125,384.611 24.583 C 384.467 25.964,384.311 26.500,384.053 26.500 C 383.887 26.500,383.844 26.604,383.917 26.833 C 383.992 27.070,383.947 27.167,383.761 27.167 C 383.595 27.167,383.500 27.315,383.500 27.573 C 383.500 27.797,383.424 28.027,383.331 28.085 C 383.237 28.143,383.207 28.265,383.264 28.356 C 383.320 28.447,383.253 28.611,383.114 28.719 C 382.975 28.828,382.832 29.067,382.796 29.250 C 382.760 29.433,382.644 29.565,382.538 29.544 C 382.422 29.520,382.388 29.614,382.452 29.781 C 382.532 29.990,382.490 30.032,382.279 29.951 C 382.083 29.876,382.000 29.931,382.000 30.139 C 382.000 30.469,380.973 31.667,380.691 31.667 C 380.592 31.667,380.555 31.782,380.609 31.923 C 380.663 32.065,380.642 32.159,380.562 32.134 C 380.482 32.108,380.084 32.424,379.678 32.835 C 379.272 33.247,378.878 33.565,378.803 33.542 C 378.728 33.519,378.685 33.594,378.708 33.708 C 378.731 33.824,378.608 33.904,378.432 33.889 C 378.096 33.860,377.725 34.138,377.729 34.417 C 377.730 34.508,377.515 34.621,377.250 34.667 C 376.985 34.712,376.765 34.825,376.759 34.917 C 376.754 35.008,376.614 35.065,376.449 35.042 C 376.283 35.019,376.194 35.075,376.250 35.167 C 376.308 35.261,376.168 35.333,375.927 35.333 C 375.692 35.333,375.500 35.408,375.500 35.500 C 375.500 35.592,375.359 35.667,375.187 35.667 C 374.788 35.667,373.722 36.109,373.585 36.331 C 373.527 36.424,373.147 36.500,372.740 36.500 C 372.237 36.500,372.013 36.567,372.042 36.708 C 372.071 36.856,371.804 36.915,371.125 36.912 C 370.598 36.910,370.167 36.966,370.167 37.037 C 370.167 37.109,369.679 37.167,369.083 37.167 C 368.231 37.167,368.000 37.220,368.000 37.417 C 368.000 37.625,367.759 37.728,367.333 37.701 C 367.287 37.698,367.246 37.989,367.242 38.348 C 367.237 38.776,367.308 39.000,367.450 39.000 C 367.596 39.000,367.667 39.246,367.667 39.750 C 367.667 40.162,367.742 40.500,367.833 40.500 C 367.925 40.500,368.000 40.802,368.000 41.172 C 368.000 41.829,368.469 42.344,368.629 41.863 C 368.665 41.755,368.984 41.667,369.337 41.667 C 369.691 41.667,370.027 41.592,370.083 41.500 C 370.140 41.408,370.527 41.333,370.944 41.333 C 371.550 41.333,371.683 41.283,371.606 41.083 C 371.531 40.887,371.652 40.833,372.172 40.833 C 372.536 40.833,372.833 40.758,372.833 40.667 C 372.833 40.575,373.063 40.500,373.343 40.500 C 373.641 40.500,373.810 40.431,373.750 40.333 C 373.688 40.233,373.915 40.167,374.323 40.167 C 374.829 40.167,375.000 40.100,375.000 39.903 C 375.000 39.697,375.130 39.657,375.595 39.720 C 376.057 39.782,376.170 39.748,376.100 39.567 C 376.038 39.406,376.138 39.333,376.422 39.333 C 376.648 39.333,376.833 39.258,376.833 39.167 C 376.833 39.075,377.021 39.000,377.250 39.000 C 377.479 39.000,377.667 38.925,377.667 38.833 C 377.667 38.742,377.817 38.667,378.000 38.667 C 378.183 38.667,378.333 38.598,378.333 38.514 C 378.333 38.430,378.669 38.233,379.080 38.076 C 379.491 37.919,379.786 37.725,379.737 37.645 C 379.687 37.565,379.747 37.500,379.870 37.500 C 379.993 37.500,380.201 37.350,380.333 37.167 C 380.465 36.983,380.745 36.833,380.953 36.833 C 381.168 36.833,381.315 36.743,381.292 36.625 C 381.269 36.510,381.349 36.437,381.471 36.462 C 381.592 36.488,381.650 36.441,381.599 36.358 C 381.548 36.276,381.692 36.069,381.920 35.898 C 382.147 35.727,382.333 35.487,382.333 35.365 C 382.333 35.242,382.464 35.168,382.625 35.199 C 382.959 35.264,383.500 34.862,383.500 34.548 C 383.500 34.232,384.035 33.669,384.225 33.786 C 384.324 33.847,384.345 33.770,384.276 33.592 C 384.192 33.373,384.228 33.321,384.413 33.392 C 384.558 33.448,384.646 33.403,384.623 33.286 C 384.601 33.174,384.677 33.102,384.792 33.125 C 384.906 33.148,385.000 33.071,385.000 32.953 C 385.000 32.836,385.150 32.632,385.333 32.500 C 385.517 32.368,385.667 32.126,385.667 31.963 C 385.667 31.800,385.779 31.667,385.917 31.667 C 386.054 31.667,386.167 31.550,386.167 31.407 C 386.167 31.264,386.242 31.193,386.333 31.250 C 386.428 31.308,386.500 31.168,386.500 30.927 C 386.500 30.692,386.575 30.500,386.667 30.500 C 386.758 30.500,386.833 30.313,386.833 30.083 C 386.833 29.854,386.908 29.667,387.000 29.667 C 387.092 29.667,387.167 29.549,387.167 29.405 C 387.167 29.261,387.283 29.026,387.426 28.883 C 387.569 28.741,387.643 28.513,387.591 28.377 C 387.530 28.219,387.575 28.160,387.714 28.213 C 387.847 28.264,387.942 28.159,387.959 27.942 C 387.973 27.748,388.064 27.562,388.159 27.530 C 388.255 27.498,388.333 27.141,388.333 26.736 C 388.333 26.331,388.408 26.000,388.500 26.000 C 388.592 26.000,388.667 25.667,388.667 25.260 C 388.667 24.853,388.742 24.473,388.833 24.417 C 388.925 24.360,389.000 23.868,389.000 23.323 C 389.000 22.525,389.052 22.333,389.268 22.333 C 389.475 22.333,389.521 22.204,389.471 21.769 C 389.423 21.359,389.463 21.227,389.619 21.287 C 389.739 21.333,389.833 21.251,389.833 21.101 C 389.833 20.954,389.908 20.833,390.000 20.833 C 390.281 20.833,390.187 20.474,389.757 19.911 C 389.532 19.616,389.395 19.328,389.452 19.271 C 389.509 19.213,389.356 19.167,389.111 19.167 C 388.820 19.167,388.667 19.077,388.667 18.907 C 388.667 18.764,388.592 18.693,388.500 18.750 C 388.408 18.807,388.333 18.752,388.333 18.629 C 388.333 18.506,388.107 18.272,387.830 18.108 C 387.554 17.945,387.371 17.741,387.424 17.656 C 387.581 17.400,387.224 17.480,387.000 17.750 M315.902 22.164 C 315.797 22.269,311.658 22.331,304.494 22.336 L 293.250 22.342 293.250 24.004 L 293.250 25.665 303.792 25.666 L 314.333 25.667 314.333 26.083 C 314.333 26.316,314.237 26.500,314.115 26.500 C 313.963 26.500,313.899 26.744,313.906 27.292 C 313.913 27.840,313.853 28.071,313.708 28.042 C 313.579 28.016,313.500 28.189,313.500 28.500 C 313.500 28.775,313.424 29.000,313.330 29.000 C 313.232 29.000,313.205 29.176,313.265 29.417 C 313.344 29.732,313.304 29.833,313.101 29.833 C 312.944 29.833,312.833 29.971,312.833 30.167 C 312.833 30.350,312.764 30.500,312.680 30.500 C 312.595 30.500,312.439 30.762,312.333 31.083 C 312.227 31.404,312.050 31.667,311.939 31.667 C 311.828 31.667,311.725 31.830,311.710 32.031 C 311.695 32.231,311.567 32.459,311.425 32.539 C 311.283 32.618,311.167 32.792,311.167 32.925 C 311.167 33.058,311.049 33.167,310.905 33.167 C 310.642 33.167,310.062 33.643,310.108 33.821 C 310.122 33.874,310.057 33.895,309.963 33.868 C 309.869 33.842,309.836 33.934,309.890 34.075 C 309.944 34.215,309.934 34.312,309.869 34.291 C 309.804 34.269,309.416 34.568,309.007 34.953 C 308.599 35.339,308.036 35.746,307.757 35.858 C 307.161 36.097,306.401 36.650,306.454 36.807 C 306.474 36.867,306.307 36.909,306.084 36.899 C 305.860 36.889,305.716 36.946,305.765 37.024 C 305.813 37.103,305.699 37.167,305.510 37.167 C 305.316 37.167,305.167 37.275,305.167 37.417 C 305.167 37.636,304.507 37.780,303.946 37.682 C 303.870 37.669,303.856 37.735,303.914 37.829 C 303.979 37.934,303.789 38.000,303.427 38.000 C 303.100 38.000,302.833 38.075,302.833 38.167 C 302.833 38.258,302.538 38.333,302.177 38.333 C 301.815 38.333,301.473 38.408,301.417 38.500 C 301.360 38.592,300.948 38.667,300.500 38.667 C 300.052 38.667,299.640 38.742,299.583 38.833 C 299.527 38.925,298.853 39.000,298.087 39.000 C 297.321 39.000,296.575 39.046,296.430 39.101 C 296.056 39.245,296.065 40.593,296.442 40.804 C 296.646 40.918,296.690 41.092,296.613 41.479 C 296.553 41.778,296.578 42.000,296.671 42.000 C 296.760 42.000,296.833 42.329,296.833 42.732 C 296.833 43.270,296.911 43.498,297.125 43.591 C 297.599 43.796,297.826 43.813,297.926 43.652 C 297.977 43.568,298.353 43.500,298.760 43.500 C 299.167 43.500,299.500 43.425,299.500 43.333 C 299.500 43.242,299.802 43.167,300.172 43.167 C 300.615 43.167,300.876 43.082,300.940 42.917 C 301.002 42.755,301.260 42.667,301.671 42.667 C 302.020 42.667,302.331 42.594,302.361 42.505 C 302.392 42.417,302.660 42.326,302.958 42.303 C 303.296 42.278,303.500 42.173,303.500 42.026 C 303.500 41.849,303.647 41.814,304.087 41.885 C 304.435 41.941,304.635 41.916,304.577 41.823 C 304.524 41.737,304.673 41.667,304.909 41.667 C 305.145 41.667,305.468 41.597,305.627 41.512 C 305.786 41.427,306.056 41.314,306.226 41.261 C 306.396 41.207,306.496 41.064,306.449 40.941 C 306.388 40.782,306.479 40.741,306.765 40.795 C 306.996 40.839,307.167 40.793,307.167 40.686 C 307.167 40.584,307.312 40.500,307.490 40.500 C 307.668 40.500,307.860 40.425,307.917 40.333 C 307.973 40.242,308.165 40.167,308.343 40.167 C 308.521 40.167,308.667 40.053,308.667 39.913 C 308.667 39.732,308.789 39.682,309.098 39.738 C 309.425 39.798,309.507 39.758,309.437 39.575 C 309.380 39.429,309.444 39.333,309.598 39.333 C 309.738 39.333,309.807 39.258,309.750 39.167 C 309.692 39.072,309.832 39.000,310.073 39.000 C 310.337 39.000,310.500 38.907,310.500 38.755 C 310.500 38.593,310.599 38.546,310.792 38.615 C 310.952 38.673,311.033 38.664,310.972 38.596 C 310.816 38.422,311.357 37.828,311.558 37.953 C 311.655 38.013,311.680 37.941,311.617 37.777 C 311.540 37.577,311.601 37.500,311.839 37.500 C 312.214 37.500,312.861 36.923,312.694 36.737 C 312.633 36.669,312.718 36.662,312.884 36.722 C 313.049 36.781,313.144 36.765,313.095 36.686 C 313.046 36.607,313.192 36.402,313.420 36.231 C 313.647 36.061,313.833 35.789,313.833 35.627 C 313.833 35.466,313.946 35.333,314.083 35.333 C 314.221 35.333,314.315 35.240,314.292 35.125 C 314.269 35.010,314.341 34.935,314.452 34.956 C 314.577 34.981,314.614 34.890,314.548 34.719 C 314.468 34.510,314.510 34.468,314.721 34.549 C 314.904 34.619,315.000 34.572,315.000 34.411 C 315.000 34.277,315.075 34.167,315.167 34.167 C 315.258 34.167,315.333 34.017,315.333 33.833 C 315.333 33.650,315.408 33.500,315.500 33.500 C 315.592 33.500,315.667 33.390,315.667 33.255 C 315.667 33.106,315.764 33.048,315.917 33.106 C 316.099 33.177,316.167 33.086,316.167 32.768 C 316.167 32.529,316.242 32.333,316.333 32.333 C 316.425 32.333,316.500 32.183,316.500 32.000 C 316.500 31.817,316.575 31.667,316.667 31.667 C 316.758 31.667,316.833 31.479,316.833 31.250 C 316.833 31.021,316.908 30.833,317.000 30.833 C 317.092 30.833,317.167 30.683,317.167 30.500 C 317.167 30.317,317.263 30.167,317.381 30.167 C 317.504 30.167,317.613 29.934,317.637 29.625 C 317.659 29.327,317.750 29.058,317.839 29.028 C 317.927 28.997,318.000 28.641,318.000 28.236 C 318.000 27.831,318.075 27.500,318.167 27.500 C 318.258 27.500,318.333 27.162,318.333 26.750 C 318.333 26.337,318.396 26.000,318.472 26.000 C 318.548 26.000,318.709 25.815,318.830 25.589 C 318.951 25.363,319.106 25.213,319.174 25.255 C 319.243 25.297,319.344 25.213,319.400 25.067 C 319.507 24.788,319.017 23.803,318.828 23.920 C 318.767 23.958,318.618 23.804,318.497 23.578 C 318.357 23.317,318.132 23.167,317.879 23.167 C 317.656 23.167,317.526 23.093,317.583 23.000 C 317.640 22.908,317.582 22.833,317.455 22.833 C 317.327 22.833,317.123 22.646,317.000 22.417 C 316.771 21.989,316.207 21.860,315.902 22.164 M196.240 25.216 C 196.195 25.334,196.178 26.553,196.204 27.924 L 196.250 30.417 198.917 30.417 L 201.583 30.417 201.629 27.708 L 201.675 25.000 198.999 25.000 C 196.963 25.000,196.303 25.052,196.240 25.216 M42.944 26.611 C 42.692 26.864,42.827 28.813,43.108 28.971 C 43.312 29.085,43.357 29.258,43.280 29.642 L 43.176 30.159 57.402 30.165 L 71.628 30.170 71.655 28.335 L 71.682 26.500 57.369 26.500 C 49.497 26.500,43.006 26.550,42.944 26.611 M113.917 27.750 C 113.917 28.639,113.977 29.000,114.125 29.000 C 114.252 29.000,114.333 29.228,114.333 29.585 L 114.333 30.170 128.571 30.165 L 142.809 30.159 142.809 28.330 L 142.809 26.500 128.363 26.500 L 113.917 26.500 113.917 27.750 M256.278 26.611 C 256.025 26.864,256.161 28.813,256.442 28.971 C 256.646 29.085,256.690 29.258,256.613 29.642 L 256.510 30.159 270.736 30.165 L 284.961 30.170 284.989 28.335 L 285.016 26.500 270.702 26.500 C 262.830 26.500,256.339 26.550,256.278 26.611 " stroke="none" fill="#bcbcbc" fill-rule="evenodd"></path><path id="path1" d="M297.228 16.667 C 297.228 17.629,297.256 18.023,297.290 17.542 C 297.323 17.060,297.323 16.273,297.290 15.792 C 297.256 15.310,297.228 15.704,297.228 16.667 M160.548 17.583 C 160.549 18.042,160.581 18.209,160.620 17.956 C 160.658 17.703,160.657 17.328,160.617 17.123 C 160.578 16.918,160.546 17.125,160.548 17.583 M86.492 17.787 C 86.446 18.175,86.472 18.428,86.550 18.350 C 86.627 18.273,86.665 17.956,86.633 17.646 C 86.576 17.097,86.573 17.101,86.492 17.787 M27.165 18.784 C 27.120 19.445,27.143 19.924,27.217 19.851 C 27.290 19.777,27.327 19.236,27.298 18.650 L 27.246 17.583 27.165 18.784 M240.498 18.784 C 240.453 19.445,240.477 19.924,240.550 19.851 C 240.624 19.777,240.660 19.236,240.632 18.650 L 240.580 17.583 240.498 18.784 M103.846 20.623 C 103.836 20.783,102.215 20.840,96.625 20.875 C 89.841 20.918,89.932 20.921,98.167 20.928 C 102.979 20.932,106.431 20.909,105.838 20.876 C 105.244 20.843,104.702 20.726,104.632 20.616 C 104.535 20.464,104.504 20.466,104.503 20.625 C 104.501 20.740,104.394 20.833,104.264 20.833 C 104.134 20.833,103.990 20.740,103.944 20.625 C 103.878 20.461,103.857 20.461,103.846 20.623 M293.225 24.167 C 293.225 24.946,293.254 25.265,293.289 24.875 C 293.324 24.485,293.324 23.848,293.289 23.458 C 293.254 23.069,293.225 23.387,293.225 24.167 M113.885 27.750 C 113.886 28.300,113.917 28.505,113.954 28.205 C 113.991 27.906,113.990 27.456,113.952 27.205 C 113.914 26.955,113.884 27.200,113.885 27.750 M313.825 27.454 C 313.779 27.841,313.806 28.094,313.883 28.017 C 313.961 27.939,313.998 27.622,313.966 27.313 C 313.910 26.764,313.906 26.767,313.825 27.454 M157.147 27.964 C 157.092 28.295,157.116 28.450,157.209 28.358 C 157.293 28.274,157.334 28.028,157.300 27.811 C 157.247 27.477,157.224 27.501,157.147 27.964 M333.500 27.644 C 333.500 27.723,333.688 27.751,333.917 27.707 C 334.146 27.664,334.333 27.599,334.333 27.564 C 334.333 27.529,334.146 27.500,333.917 27.500 C 333.688 27.500,333.500 27.565,333.500 27.644 M330.125 29.286 C 329.873 29.324,329.667 29.413,329.667 29.482 C 329.667 29.552,329.892 29.576,330.167 29.536 C 330.442 29.495,330.667 29.396,330.667 29.314 C 330.667 29.233,330.648 29.178,330.625 29.192 C 330.602 29.205,330.377 29.248,330.125 29.286 M378.714 33.617 C 378.511 33.827,378.406 34.000,378.480 34.000 C 378.643 34.000,379.249 33.352,379.152 33.282 C 379.114 33.255,378.917 33.406,378.714 33.617 M168.917 33.833 L 167.583 33.939 168.865 33.969 C 169.575 33.986,170.193 33.926,170.250 33.833 C 170.307 33.742,170.330 33.680,170.302 33.697 C 170.273 33.714,169.650 33.775,168.917 33.833 M158.057 35.042 C 158.015 35.110,158.679 35.155,159.532 35.142 C 161.146 35.116,161.008 35.043,159.192 34.963 C 158.610 34.938,158.100 34.973,158.057 35.042 M371.250 36.833 L 370.417 36.948 371.198 36.974 C 371.629 36.988,372.027 36.925,372.083 36.833 C 372.140 36.742,372.163 36.678,372.135 36.693 C 372.107 36.707,371.708 36.770,371.250 36.833 M305.000 37.333 C 305.000 37.425,304.750 37.500,304.444 37.500 C 304.056 37.500,303.889 37.577,303.889 37.756 C 303.889 37.931,303.943 37.957,304.061 37.839 C 304.156 37.744,304.443 37.667,304.700 37.667 C 305.004 37.667,305.167 37.579,305.167 37.417 C 305.167 37.279,305.129 37.167,305.083 37.167 C 305.037 37.167,305.000 37.242,305.000 37.333 M13.000 37.500 L 12.417 37.623 12.948 37.645 C 13.241 37.657,13.527 37.592,13.583 37.500 C 13.640 37.408,13.663 37.343,13.635 37.355 C 13.607 37.367,13.321 37.432,13.000 37.500 M226.333 37.500 L 225.750 37.623 226.282 37.645 C 226.574 37.657,226.860 37.592,226.917 37.500 C 226.973 37.408,226.996 37.343,226.968 37.355 C 226.940 37.367,226.654 37.432,226.333 37.500 M367.216 38.125 C 367.200 38.687,367.209 38.701,367.307 38.267 C 367.367 38.001,367.567 37.725,367.750 37.653 C 368.048 37.537,368.039 37.522,367.659 37.512 C 367.281 37.501,367.233 37.568,367.216 38.125 M83.938 39.465 C 83.893 39.538,84.133 39.570,84.470 39.536 C 85.392 39.445,85.502 39.361,84.718 39.346 C 84.334 39.339,83.983 39.393,83.938 39.465 M152.377 39.786 C 152.631 39.825,153.006 39.824,153.211 39.784 C 153.416 39.744,153.208 39.713,152.750 39.714 C 152.292 39.716,152.124 39.748,152.377 39.786 " stroke="none" fill="#c0bcbc" fill-rule="evenodd"></path><path id="path2" d="M297.228 16.667 C 297.228 17.629,297.256 18.023,297.290 17.542 C 297.323 17.060,297.323 16.273,297.290 15.792 C 297.256 15.310,297.228 15.704,297.228 16.667 M160.548 17.583 C 160.549 18.042,160.581 18.209,160.620 17.956 C 160.658 17.703,160.657 17.328,160.617 17.123 C 160.578 16.918,160.546 17.125,160.548 17.583 M86.492 17.787 C 86.446 18.175,86.472 18.428,86.550 18.350 C 86.627 18.273,86.665 17.956,86.633 17.646 C 86.576 17.097,86.573 17.101,86.492 17.787 M27.165 18.784 C 27.120 19.445,27.143 19.924,27.217 19.851 C 27.290 19.777,27.327 19.236,27.298 18.650 L 27.246 17.583 27.165 18.784 M240.498 18.784 C 240.453 19.445,240.477 19.924,240.550 19.851 C 240.624 19.777,240.660 19.236,240.632 18.650 L 240.580 17.583 240.498 18.784 M103.846 20.623 C 103.836 20.783,102.215 20.840,96.625 20.875 C 89.841 20.918,89.932 20.921,98.167 20.928 C 102.979 20.932,106.431 20.909,105.838 20.876 C 105.244 20.843,104.702 20.726,104.632 20.616 C 104.535 20.464,104.504 20.466,104.503 20.625 C 104.501 20.740,104.394 20.833,104.264 20.833 C 104.134 20.833,103.990 20.740,103.944 20.625 C 103.878 20.461,103.857 20.461,103.846 20.623 M293.225 24.167 C 293.225 24.946,293.254 25.265,293.289 24.875 C 293.324 24.485,293.324 23.848,293.289 23.458 C 293.254 23.069,293.225 23.387,293.225 24.167 M113.885 27.750 C 113.886 28.300,113.917 28.505,113.954 28.205 C 113.991 27.906,113.990 27.456,113.952 27.205 C 113.914 26.955,113.884 27.200,113.885 27.750 M313.825 27.454 C 313.779 27.841,313.806 28.094,313.883 28.017 C 313.961 27.939,313.998 27.622,313.966 27.313 C 313.910 26.764,313.906 26.767,313.825 27.454 M157.147 27.964 C 157.092 28.295,157.116 28.450,157.209 28.358 C 157.293 28.274,157.334 28.028,157.300 27.811 C 157.247 27.477,157.224 27.501,157.147 27.964 M333.500 27.644 C 333.500 27.723,333.688 27.751,333.917 27.707 C 334.146 27.664,334.333 27.599,334.333 27.564 C 334.333 27.529,334.146 27.500,333.917 27.500 C 333.688 27.500,333.500 27.565,333.500 27.644 M330.125 29.286 C 329.873 29.324,329.667 29.413,329.667 29.482 C 329.667 29.552,329.892 29.576,330.167 29.536 C 330.442 29.495,330.667 29.396,330.667 29.314 C 330.667 29.233,330.648 29.178,330.625 29.192 C 330.602 29.205,330.377 29.248,330.125 29.286 M378.714 33.617 C 378.511 33.827,378.406 34.000,378.480 34.000 C 378.643 34.000,379.249 33.352,379.152 33.282 C 379.114 33.255,378.917 33.406,378.714 33.617 M168.917 33.833 L 167.583 33.939 168.865 33.969 C 169.575 33.986,170.193 33.926,170.250 33.833 C 170.307 33.742,170.330 33.680,170.302 33.697 C 170.273 33.714,169.650 33.775,168.917 33.833 M158.057 35.042 C 158.015 35.110,158.679 35.155,159.532 35.142 C 161.146 35.116,161.008 35.043,159.192 34.963 C 158.610 34.938,158.100 34.973,158.057 35.042 M371.250 36.833 L 370.417 36.948 371.198 36.974 C 371.629 36.988,372.027 36.925,372.083 36.833 C 372.140 36.742,372.163 36.678,372.135 36.693 C 372.107 36.707,371.708 36.770,371.250 36.833 M305.000 37.333 C 305.000 37.425,304.750 37.500,304.444 37.500 C 304.056 37.500,303.889 37.577,303.889 37.756 C 303.889 37.931,303.943 37.957,304.061 37.839 C 304.156 37.744,304.443 37.667,304.700 37.667 C 305.004 37.667,305.167 37.579,305.167 37.417 C 305.167 37.279,305.129 37.167,305.083 37.167 C 305.037 37.167,305.000 37.242,305.000 37.333 M13.000 37.500 L 12.417 37.623 12.948 37.645 C 13.241 37.657,13.527 37.592,13.583 37.500 C 13.640 37.408,13.663 37.343,13.635 37.355 C 13.607 37.367,13.321 37.432,13.000 37.500 M226.333 37.500 L 225.750 37.623 226.282 37.645 C 226.574 37.657,226.860 37.592,226.917 37.500 C 226.973 37.408,226.996 37.343,226.968 37.355 C 226.940 37.367,226.654 37.432,226.333 37.500 M367.216 38.125 C 367.200 38.687,367.209 38.701,367.307 38.267 C 367.367 38.001,367.567 37.725,367.750 37.653 C 368.048 37.537,368.039 37.522,367.659 37.512 C 367.281 37.501,367.233 37.568,367.216 38.125 M83.938 39.465 C 83.893 39.538,84.133 39.570,84.470 39.536 C 85.392 39.445,85.502 39.361,84.718 39.346 C 84.334 39.339,83.983 39.393,83.938 39.465 M152.377 39.786 C 152.631 39.825,153.006 39.824,153.211 39.784 C 153.416 39.744,153.208 39.713,152.750 39.714 C 152.292 39.716,152.124 39.748,152.377 39.786 " stroke="none" fill="#c0bcbc" fill-rule="evenodd"></path><path id="path3" d="M297.228 16.667 C 297.228 17.629,297.256 18.023,297.290 17.542 C 297.323 17.060,297.323 16.273,297.290 15.792 C 297.256 15.310,297.228 15.704,297.228 16.667 M160.548 17.583 C 160.549 18.042,160.581 18.209,160.620 17.956 C 160.658 17.703,160.657 17.328,160.617 17.123 C 160.578 16.918,160.546 17.125,160.548 17.583 M86.492 17.787 C 86.446 18.175,86.472 18.428,86.550 18.350 C 86.627 18.273,86.665 17.956,86.633 17.646 C 86.576 17.097,86.573 17.101,86.492 17.787 M27.165 18.784 C 27.120 19.445,27.143 19.924,27.217 19.851 C 27.290 19.777,27.327 19.236,27.298 18.650 L 27.246 17.583 27.165 18.784 M240.498 18.784 C 240.453 19.445,240.477 19.924,240.550 19.851 C 240.624 19.777,240.660 19.236,240.632 18.650 L 240.580 17.583 240.498 18.784 M103.846 20.623 C 103.836 20.783,102.215 20.840,96.625 20.875 C 89.841 20.918,89.932 20.921,98.167 20.928 C 102.979 20.932,106.431 20.909,105.838 20.876 C 105.244 20.843,104.702 20.726,104.632 20.616 C 104.535 20.464,104.504 20.466,104.503 20.625 C 104.501 20.740,104.394 20.833,104.264 20.833 C 104.134 20.833,103.990 20.740,103.944 20.625 C 103.878 20.461,103.857 20.461,103.846 20.623 M293.225 24.167 C 293.225 24.946,293.254 25.265,293.289 24.875 C 293.324 24.485,293.324 23.848,293.289 23.458 C 293.254 23.069,293.225 23.387,293.225 24.167 M113.885 27.750 C 113.886 28.300,113.917 28.505,113.954 28.205 C 113.991 27.906,113.990 27.456,113.952 27.205 C 113.914 26.955,113.884 27.200,113.885 27.750 M313.825 27.454 C 313.779 27.841,313.806 28.094,313.883 28.017 C 313.961 27.939,313.998 27.622,313.966 27.313 C 313.910 26.764,313.906 26.767,313.825 27.454 M157.147 27.964 C 157.092 28.295,157.116 28.450,157.209 28.358 C 157.293 28.274,157.334 28.028,157.300 27.811 C 157.247 27.477,157.224 27.501,157.147 27.964 M333.500 27.644 C 333.500 27.723,333.688 27.751,333.917 27.707 C 334.146 27.664,334.333 27.599,334.333 27.564 C 334.333 27.529,334.146 27.500,333.917 27.500 C 333.688 27.500,333.500 27.565,333.500 27.644 M330.125 29.286 C 329.873 29.324,329.667 29.413,329.667 29.482 C 329.667 29.552,329.892 29.576,330.167 29.536 C 330.442 29.495,330.667 29.396,330.667 29.314 C 330.667 29.233,330.648 29.178,330.625 29.192 C 330.602 29.205,330.377 29.248,330.125 29.286 M378.714 33.617 C 378.511 33.827,378.406 34.000,378.480 34.000 C 378.643 34.000,379.249 33.352,379.152 33.282 C 379.114 33.255,378.917 33.406,378.714 33.617 M168.917 33.833 L 167.583 33.939 168.865 33.969 C 169.575 33.986,170.193 33.926,170.250 33.833 C 170.307 33.742,170.330 33.680,170.302 33.697 C 170.273 33.714,169.650 33.775,168.917 33.833 M158.057 35.042 C 158.015 35.110,158.679 35.155,159.532 35.142 C 161.146 35.116,161.008 35.043,159.192 34.963 C 158.610 34.938,158.100 34.973,158.057 35.042 M371.250 36.833 L 370.417 36.948 371.198 36.974 C 371.629 36.988,372.027 36.925,372.083 36.833 C 372.140 36.742,372.163 36.678,372.135 36.693 C 372.107 36.707,371.708 36.770,371.250 36.833 M305.000 37.333 C 305.000 37.425,304.750 37.500,304.444 37.500 C 304.056 37.500,303.889 37.577,303.889 37.756 C 303.889 37.931,303.943 37.957,304.061 37.839 C 304.156 37.744,304.443 37.667,304.700 37.667 C 305.004 37.667,305.167 37.579,305.167 37.417 C 305.167 37.279,305.129 37.167,305.083 37.167 C 305.037 37.167,305.000 37.242,305.000 37.333 M13.000 37.500 L 12.417 37.623 12.948 37.645 C 13.241 37.657,13.527 37.592,13.583 37.500 C 13.640 37.408,13.663 37.343,13.635 37.355 C 13.607 37.367,13.321 37.432,13.000 37.500 M226.333 37.500 L 225.750 37.623 226.282 37.645 C 226.574 37.657,226.860 37.592,226.917 37.500 C 226.973 37.408,226.996 37.343,226.968 37.355 C 226.940 37.367,226.654 37.432,226.333 37.500 M367.216 38.125 C 367.200 38.687,367.209 38.701,367.307 38.267 C 367.367 38.001,367.567 37.725,367.750 37.653 C 368.048 37.537,368.039 37.522,367.659 37.512 C 367.281 37.501,367.233 37.568,367.216 38.125 M83.938 39.465 C 83.893 39.538,84.133 39.570,84.470 39.536 C 85.392 39.445,85.502 39.361,84.718 39.346 C 84.334 39.339,83.983 39.393,83.938 39.465 M152.377 39.786 C 152.631 39.825,153.006 39.824,153.211 39.784 C 153.416 39.744,153.208 39.713,152.750 39.714 C 152.292 39.716,152.124 39.748,152.377 39.786 " stroke="none" fill="#c0bcbc" fill-rule="evenodd"></path><path id="path4" d="M297.228 16.667 C 297.228 17.629,297.256 18.023,297.290 17.542 C 297.323 17.060,297.323 16.273,297.290 15.792 C 297.256 15.310,297.228 15.704,297.228 16.667 M160.548 17.583 C 160.549 18.042,160.581 18.209,160.620 17.956 C 160.658 17.703,160.657 17.328,160.617 17.123 C 160.578 16.918,160.546 17.125,160.548 17.583 M86.492 17.787 C 86.446 18.175,86.472 18.428,86.550 18.350 C 86.627 18.273,86.665 17.956,86.633 17.646 C 86.576 17.097,86.573 17.101,86.492 17.787 M27.165 18.784 C 27.120 19.445,27.143 19.924,27.217 19.851 C 27.290 19.777,27.327 19.236,27.298 18.650 L 27.246 17.583 27.165 18.784 M240.498 18.784 C 240.453 19.445,240.477 19.924,240.550 19.851 C 240.624 19.777,240.660 19.236,240.632 18.650 L 240.580 17.583 240.498 18.784 M103.846 20.623 C 103.836 20.783,102.215 20.840,96.625 20.875 C 89.841 20.918,89.932 20.921,98.167 20.928 C 102.979 20.932,106.431 20.909,105.838 20.876 C 105.244 20.843,104.702 20.726,104.632 20.616 C 104.535 20.464,104.504 20.466,104.503 20.625 C 104.501 20.740,104.394 20.833,104.264 20.833 C 104.134 20.833,103.990 20.740,103.944 20.625 C 103.878 20.461,103.857 20.461,103.846 20.623 M293.225 24.167 C 293.225 24.946,293.254 25.265,293.289 24.875 C 293.324 24.485,293.324 23.848,293.289 23.458 C 293.254 23.069,293.225 23.387,293.225 24.167 M113.885 27.750 C 113.886 28.300,113.917 28.505,113.954 28.205 C 113.991 27.906,113.990 27.456,113.952 27.205 C 113.914 26.955,113.884 27.200,113.885 27.750 M313.825 27.454 C 313.779 27.841,313.806 28.094,313.883 28.017 C 313.961 27.939,313.998 27.622,313.966 27.313 C 313.910 26.764,313.906 26.767,313.825 27.454 M157.147 27.964 C 157.092 28.295,157.116 28.450,157.209 28.358 C 157.293 28.274,157.334 28.028,157.300 27.811 C 157.247 27.477,157.224 27.501,157.147 27.964 M333.500 27.644 C 333.500 27.723,333.688 27.751,333.917 27.707 C 334.146 27.664,334.333 27.599,334.333 27.564 C 334.333 27.529,334.146 27.500,333.917 27.500 C 333.688 27.500,333.500 27.565,333.500 27.644 M330.125 29.286 C 329.873 29.324,329.667 29.413,329.667 29.482 C 329.667 29.552,329.892 29.576,330.167 29.536 C 330.442 29.495,330.667 29.396,330.667 29.314 C 330.667 29.233,330.648 29.178,330.625 29.192 C 330.602 29.205,330.377 29.248,330.125 29.286 M378.714 33.617 C 378.511 33.827,378.406 34.000,378.480 34.000 C 378.643 34.000,379.249 33.352,379.152 33.282 C 379.114 33.255,378.917 33.406,378.714 33.617 M168.917 33.833 L 167.583 33.939 168.865 33.969 C 169.575 33.986,170.193 33.926,170.250 33.833 C 170.307 33.742,170.330 33.680,170.302 33.697 C 170.273 33.714,169.650 33.775,168.917 33.833 M158.057 35.042 C 158.015 35.110,158.679 35.155,159.532 35.142 C 161.146 35.116,161.008 35.043,159.192 34.963 C 158.610 34.938,158.100 34.973,158.057 35.042 M371.250 36.833 L 370.417 36.948 371.198 36.974 C 371.629 36.988,372.027 36.925,372.083 36.833 C 372.140 36.742,372.163 36.678,372.135 36.693 C 372.107 36.707,371.708 36.770,371.250 36.833 M305.000 37.333 C 305.000 37.425,304.750 37.500,304.444 37.500 C 304.056 37.500,303.889 37.577,303.889 37.756 C 303.889 37.931,303.943 37.957,304.061 37.839 C 304.156 37.744,304.443 37.667,304.700 37.667 C 305.004 37.667,305.167 37.579,305.167 37.417 C 305.167 37.279,305.129 37.167,305.083 37.167 C 305.037 37.167,305.000 37.242,305.000 37.333 M13.000 37.500 L 12.417 37.623 12.948 37.645 C 13.241 37.657,13.527 37.592,13.583 37.500 C 13.640 37.408,13.663 37.343,13.635 37.355 C 13.607 37.367,13.321 37.432,13.000 37.500 M226.333 37.500 L 225.750 37.623 226.282 37.645 C 226.574 37.657,226.860 37.592,226.917 37.500 C 226.973 37.408,226.996 37.343,226.968 37.355 C 226.940 37.367,226.654 37.432,226.333 37.500 M367.216 38.125 C 367.200 38.687,367.209 38.701,367.307 38.267 C 367.367 38.001,367.567 37.725,367.750 37.653 C 368.048 37.537,368.039 37.522,367.659 37.512 C 367.281 37.501,367.233 37.568,367.216 38.125 M83.938 39.465 C 83.893 39.538,84.133 39.570,84.470 39.536 C 85.392 39.445,85.502 39.361,84.718 39.346 C 84.334 39.339,83.983 39.393,83.938 39.465 M152.377 39.786 C 152.631 39.825,153.006 39.824,153.211 39.784 C 153.416 39.744,153.208 39.713,152.750 39.714 C 152.292 39.716,152.124 39.748,152.377 39.786 " stroke="none" fill="#c0bcbc" fill-rule="evenodd"></path></g></svg>